<?xml version="1.0" standalone="no"?>
<!DOCTYPE svg PUBLIC "-//W3C//DTD SVG 1.1//EN" "http://www.w3.org/Graphics/SVG/1.1/DTD/svg11.dtd" >
<svg>
<metadata>
Created by FontForge 20090914 at Sat Jan 25 14:26:20 2020
 By www-data
Copyright 2001 Double Alex Font Studio.
</metadata>
<defs>
<font id="PlumbCondensed-Regular" horiz-adv-x="362" >
  <font-face 
    font-family="PlumbCondensed"
    font-weight="400"
    font-stretch="condensed"
    units-per-em="1000"
    panose-1="0 0 0 0 0 0 0 0 0 0"
    ascent="800"
    descent="-200"
    x-height="491"
    cap-height="712"
    bbox="-17.998 -227.001 1000 876"
    underline-thickness="50"
    underline-position="-75"
    unicode-range="U+0020-U+2265"
  />
<missing-glyph horiz-adv-x="1000" 
 />
    <glyph glyph-name=".notdef" horiz-adv-x="1000" 
 />
    <glyph glyph-name="space" unicode=" " horiz-adv-x="173" 
 />
    <glyph glyph-name="exclam" unicode="!" horiz-adv-x="226" 
d="M164 712l-11 -515h-58l-11 515h80zM176 47c0 -14.667 -5 -27.167 -15 -37.5s-22.333 -15.5 -37 -15.5c-14 0 -26.167 5 -36.5 15s-15.5 22.333 -15.5 37c0 14 5.16699 26.167 15.5 36.5s22.5 15.5 36.5 15.5c14.667 0 27 -5 37 -15s15 -22 15 -36z" />
    <glyph glyph-name="quotedbl" unicode="&#x22;" horiz-adv-x="310" 
d="M258 539h-65v173h65v-173zM117 539h-64v173h64v-173z" />
    <glyph glyph-name="numbersign" unicode="#" horiz-adv-x="434" 
d="M403 434h-71l-15 -144h64v-63h-71l-25 -227h-60l25 227h-93l-25 -227h-60l25 227h-66v63h73l16 144h-68v63h75l23 215h60l-24 -215h94l23 215h60l-24 -215h64v-63zM273 434h-94l-15 -144h93z" />
    <glyph glyph-name="dollar" unicode="$" horiz-adv-x="400" 
d="M366 191c0 -117.333 -44.998 -182.336 -134.998 -195.003v-110h-59v109c-44 4 -78.167 20.333 -102.5 49s-37.5 68.334 -39.5 119.001h71c2.66699 -34 10.334 -58.833 23.001 -74.5s31 -24.5 55 -26.5v276l-6 2c-26.667 8.66699 -46.834 17.334 -60.501 26.001
s-26.167 20.334 -37.5 35.001c-22.667 28.667 -34 74 -34 136c0 108 43.667 167.667 131 179v90h59v-89c39.333 -4.66699 69.666 -19.5 90.999 -44.5s33.666 -63.5 36.999 -115.5h-72c-2.66699 56 -23.667 87.333 -63 94v-249l5 -2c21.333 -8.66699 36 -14.834 44 -18.501
s17 -8.66699 27 -15s18.667 -13.5 26 -21.5c26.667 -31.333 40 -82.666 40 -153.999zM179.002 417.997v233.001c-44.667 -6.66699 -67 -44 -67 -112c0 -42.667 6.66699 -72.334 20 -89.001c10 -13.333 25.667 -24 47 -32zM293.002 187.998
c0 48.667 -7.66797 82.6689 -23.001 102.002c-9.33301 12 -24.666 22.667 -45.999 32v-259c24 5.33301 41.5 17.666 52.5 36.999s16.5 48.666 16.5 87.999z" />
    <glyph glyph-name="percent" unicode="%" horiz-adv-x="569" 
d="M237 467c0 -40.667 -8.83301 -71.5 -26.5 -92.5s-42.834 -31.5 -75.501 -31.5s-57.667 10.5 -75 31.5s-26 51.833 -26 92.5v127c0 40.667 8.83301 71.667 26.5 93s42.5 32 74.5 32c32.667 0 57.834 -10.667 75.501 -32s26.5 -52.333 26.5 -93v-127zM428 712l-232 -712
h-56l231 712h57zM535 118c0 -40.667 -8.83301 -71.667 -26.5 -93s-42.5 -32 -74.5 -32c-32.667 0 -57.834 10.667 -75.501 32s-26.5 52.333 -26.5 93v126c0 40.667 8.83301 71.667 26.5 93s42.834 32 75.501 32s57.667 -10.5 75 -31.5s26 -52.167 26 -93.5v-126zM183 468
v125c0 26 -3.66699 44.833 -11 56.5s-19.666 17.5 -36.999 17.5c-16.667 0 -28.667 -5.83301 -36 -17.5s-11 -30.5 -11 -56.5v-125c0 -26 3.66699 -44.667 11 -56s19.333 -17 36 -17c17.333 0 29.666 5.66699 36.999 17s11 30 11 56zM480 118v126c0 26 -3.5 44.667 -10.5 56
s-18.833 17 -35.5 17c-17.333 0 -29.666 -5.66699 -36.999 -17s-11 -30 -11 -56v-126c0 -26 3.66699 -44.667 11 -56s19.666 -17 36.999 -17c30.667 0 46 24.333 46 73z" />
    <glyph glyph-name="ampersand" unicode="&#x26;" horiz-adv-x="507" 
d="M455 0h-77.002l-25 45c-37.333 -34 -83.666 -51 -138.999 -51c-53.333 0 -96.166 17.5 -128.499 52.5s-48.5 83.833 -48.5 146.5c0 25.333 3 48.5 9 69.5s15.833 40.167 29.5 57.5s25.667 31 36 41s24.833 22.667 43.5 38l-8 14c-12.667 22.667 -22 40.167 -28 52.5
s-11.833 28.5 -17.5 48.5s-8.5 40.333 -8.5 61c0 44 12 78.833 36 104.5s56.667 38.5 98 38.5c39.333 0 71 -12.5 95 -37.5s36 -59.5 36 -103.5c0 -52 -28 -102.667 -84 -152l-37 -32l121 -218c14 46 21 104.667 21 176h66c-1.33301 -106 -17.333 -188 -48 -246z
M291.998 576c0 53.333 -22 80 -66 80c-43.333 0 -65 -26.333 -65 -79c0 -33.333 14.333 -75 43 -125l4 -7l29 26c36.667 33.333 55 68.333 55 105zM320.998 103l-135.999 243c-16.667 -14 -29.667 -26.167 -39 -36.5s-18.333 -25.666 -27 -45.999s-13 -42.5 -13 -66.5
c0 -42.667 9.66699 -76.334 29 -101.001s46.666 -37 81.999 -37c46 0 80.667 14.667 104 44z" />
    <glyph glyph-name="quotesingle" unicode="'" horiz-adv-x="170" 
d="M117 539h-64v173h64v-173z" />
    <glyph glyph-name="parenleft" unicode="(" horiz-adv-x="263" 
d="M215 -42l-47 -49.999c-37.333 35.333 -61.333 63.333 -72 84c-12.667 24 -19 58.333 -19 103v522c0 44.667 6.33301 78.667 19 102s36.667 51.666 72 84.999l47 -50c-27.333 -24.667 -45.666 -46 -54.999 -64c-8.66699 -17.333 -13 -43.666 -13 -78.999v-510
c0 -36.667 4.33301 -63.334 13 -80.001c9.33301 -17.333 27.666 -38.333 54.999 -63z" />
    <glyph glyph-name="parenright" unicode=")" horiz-adv-x="263" 
d="M186 95c0 -44.667 -6.33301 -79.001 -19 -103.001c-11.333 -22.667 -35.333 -50.667 -72 -84l-47 50c27.333 24.667 45.666 45.667 54.999 63c8.66699 14.667 13 41.334 13 80.001v510c0 35.333 -4.33301 61.666 -13 78.999c-9.33301 18 -27.666 39.333 -54.999 64l47 50
c35.333 -33.333 59.333 -61.666 72 -84.999s19 -57.333 19 -102v-522z" />
    <glyph glyph-name="asterisk" unicode="*" horiz-adv-x="358" 
d="M321 493l-33 -48l-86 64l2 -31l2 -62l2 -31h-58l6 124l-84 -64l-34 48l101 58l-101 57l34 48l84 -63l-6 123h58c-3.33301 -82 -5 -123.333 -5 -124l85 64l33 -48l-102 -57z" />
    <glyph glyph-name="plus" unicode="+" horiz-adv-x="359" 
d="M327 236h-115v-128h-66v128h-116v63h116v127h66v-127h115v-63z" />
    <glyph glyph-name="comma" unicode="," horiz-adv-x="216" 
d="M170 86l-74 -194h-59l48 194h85z" />
    <glyph glyph-name="hyphen" unicode="-" horiz-adv-x="272" 
d="M225 238h-178v63h178v-63z" />
    <glyph glyph-name="period" unicode="." horiz-adv-x="216" 
d="M159 47c0 -14.667 -5 -27.167 -15 -37.5s-22.333 -15.5 -37 -15.5c-14 0 -26.167 5 -36.5 15s-15.5 22.333 -15.5 37c0 14 5.16699 26.167 15.5 36.5s22.5 15.5 36.5 15.5s26.167 -5 36.5 -15s15.5 -22 15.5 -36z" />
    <glyph glyph-name="slash" unicode="/" horiz-adv-x="261" 
d="M264 786l-200 -860h-66l200 860h66z" />
    <glyph glyph-name="zero" unicode="0" 
d="M331 167c0 -57.333 -13.333 -100.5 -40 -129.5s-61.667 -43.5 -105 -43.5c-44 0 -79.167 14.5 -105.5 43.5s-39.5 72.167 -39.5 129.5v378c0 57.333 13.167 100.5 39.5 129.5s61.5 43.5 105.5 43.5c43.333 0 78.333 -14.5 105 -43.5s40 -72.167 40 -129.5v-378zM262 171
v370c0 39.333 -6 68.166 -18 86.499s-31.333 27.5 -58 27.5c-27.333 0 -46.833 -9.16699 -58.5 -27.5s-17.5 -47.166 -17.5 -86.499v-370c0 -39.333 5.83301 -68.166 17.5 -86.499s31.167 -27.5 58.5 -27.5c26.667 0 46 9.16699 58 27.5s18 47.166 18 86.499z" />
    <glyph glyph-name="one" unicode="1" 
d="M241 0h-69v624l-93 -106v88l93 106h69v-712z" />
    <glyph glyph-name="two" unicode="2" 
d="M324 546c0 -54.667 -17 -113.667 -51 -177l-163 -305h208v-64h-285v64l184 341c24.667 45.333 37 92.333 37 141c0 38.667 -5.16699 66.5 -15.5 83.5s-29.166 25.5 -56.499 25.5c-26.667 0 -46.834 -9.5 -60.501 -28.5s-20.5 -52.5 -20.5 -100.5h-68
c0 128 49.667 192 149 192c47.333 0 82.833 -13.833 106.5 -41.5s35.5 -71.167 35.5 -130.5z" />
    <glyph glyph-name="three" unicode="3" 
d="M330 170c0 -117.333 -50.667 -176.003 -152 -176.003c-102.667 0 -154 59.333 -154 178v15h69v-9c0 -42.667 6.83301 -73.5 20.5 -92.5s35.167 -28.5 64.5 -28.5s50.5 9.33301 63.5 28s19.5 49.667 19.5 93v38c0 40.667 -7.33301 70.334 -22 89.001s-39 28 -73 28h-16v63
h16c30 0 51.833 8.83301 65.5 26.5s20.5 45.834 20.5 84.501v36c0 42 -5.5 71.333 -16.5 88s-30.5 25 -58.5 25s-48 -8.5 -60 -25.5s-18 -46.167 -18 -87.5v-14h-69v17c0 115.333 49 173 147 173c96 0 144 -56.333 144 -169v-48c0 -71.333 -26 -116.333 -78 -135
c58 -15.333 87 -63.666 87 -144.999v-52z" />
    <glyph glyph-name="four" unicode="4" 
d="M341 113h-48v-113h-68v113h-200v63l179 536h70l-179 -536h130v194h68v-194h48v-63z" />
    <glyph glyph-name="five" unicode="5" 
d="M331 175c0 -120.667 -47.6631 -181.001 -142.996 -181.001c-50.667 0 -87.334 14.333 -110.001 43s-34.667 72.334 -36 131.001h69c1.33301 -40.667 7.16602 -69.334 17.499 -86.001s30.166 -25 59.499 -25s49 10.833 59 32.5s15 52.834 15 93.501v98
c0 47.333 -4.83301 80.333 -14.5 99s-28.834 28 -57.501 28c-44 0 -69.333 -23.667 -76 -71h-64v375h267v-64h-205v-219c18 27.333 47.667 41 89 41c48.667 0 82.5 -15.333 101.5 -46s28.5 -75.667 28.5 -135v-114z" />
    <glyph glyph-name="six" unicode="6" 
d="M336 206c0 -76 -12.335 -130.332 -37.002 -162.999s-63.667 -49 -117 -49c-51.333 0 -89.666 16.167 -114.999 48.5s-38 84.5 -38 156.5c0 12.667 0.5 25 1.5 37l2.5 30.5c0.666992 8.33301 2.66699 18.666 6 30.999s5.5 21 6.5 26s4.33301 14.5 10 28.5
s8.83398 22.333 9.50098 25s4.66699 12.5 12 29.5s11.333 26.5 12 28.5l113 277h73l-131 -320c12.667 10 30 15 52 15c45.333 0 80 -15.5 104 -46.5s36 -82.5 36 -154.5zM266.998 202.001c0 54 -5.83496 91.5 -17.502 112.5s-34.167 31.5 -67.5 31.5
c-31.333 0 -53.166 -11 -65.499 -33s-18.5 -59 -18.5 -111c0 -54 5.83301 -91.667 17.5 -113s33.834 -32 66.501 -32c33.333 0 55.833 10.667 67.5 32s17.5 59 17.5 113z" />
    <glyph glyph-name="seven" unicode="7" 
d="M331 648l-169 -648h-69l169 648h-162v-108h-68v172h299v-64z" />
    <glyph glyph-name="eight" unicode="8" 
d="M340 194c0 -73.333 -13.168 -125.002 -39.501 -155.002s-66.166 -45 -119.499 -45s-93.166 15 -119.499 45s-39.5 81.667 -39.5 155c0 90.667 24 149.334 72 176.001c-42 24 -63 77.333 -63 160c0 66.667 12.5 114.667 37.5 144s62.5 44 112.5 44
c49.333 0 86.666 -14.833 111.999 -44.5s38 -77.5 38 -143.5c0 -81.333 -21.333 -134.666 -64 -159.999c23.333 -13.333 41.333 -33 54 -59s19 -65 19 -117zM261.999 526.998c0 46.667 -5.83105 79.834 -17.498 99.501s-32.834 29.5 -63.501 29.5
s-51.834 -9.83301 -63.501 -29.5s-17.5 -52.834 -17.5 -99.501s6 -79.667 18 -99s33 -29 63 -29s51 9.66699 63 29s18 52.333 18 99zM271.001 195.998c0 52.667 -6.83301 89.167 -20.5 109.5s-36.834 30.5 -69.501 30.5c-33.333 0 -56.666 -10.167 -69.999 -30.5
s-20 -56.833 -20 -109.5s6.5 -89.167 19.5 -109.5s36.5 -30.5 70.5 -30.5s57.5 10.167 70.5 30.5s19.5 56.833 19.5 109.5z" />
    <glyph glyph-name="nine" unicode="9" 
d="M335 513c0 -14 -0.499023 -27.332 -1.49902 -39.999s-2.66699 -25.334 -5 -38.001s-4.5 -23 -6.5 -31s-5.33301 -18.833 -10 -32.5s-8.16699 -23.334 -10.5 -29.001l-13.5 -33c-6.66699 -16.333 -11 -27.166 -13 -32.499l-112 -277h-74l131 320
c-12.667 -10 -30 -15 -52 -15c-45.333 0 -80 15.5 -104 46.5s-36 82.5 -36 154.5c0 76 12.333 130.333 37 163s63.667 49 117 49c51.333 0 89.666 -16.167 114.999 -48.5s38 -84.5 38 -156.5zM266.001 510.001c0 54 -5.83105 91.668 -17.498 113.001s-33.834 32 -66.501 32
c-33.333 0 -55.666 -10.667 -66.999 -32s-17 -59 -17 -113c0 -54.667 5.66699 -92.334 17 -113.001s33.666 -31 66.999 -31c31.333 0 53.166 11 65.499 33s18.5 59 18.5 111z" />
    <glyph glyph-name="colon" unicode=":" horiz-adv-x="216" 
d="M160 407c0 -14.667 -5 -27.167 -15 -37.5s-22.333 -15.5 -37 -15.5c-14 0 -26.167 5 -36.5 15s-15.5 22 -15.5 36c0 14.667 5.16699 27 15.5 37s22.5 15 36.5 15s26.167 -5 36.5 -15s15.5 -21.667 15.5 -35zM160 47c0 -14.667 -5 -27.168 -15 -37.501
s-22.333 -15.5 -37 -15.5c-14 0 -26.167 5 -36.5 15s-15.5 22.333 -15.5 37c0 14 5.16699 26.167 15.5 36.5s22.5 15.5 36.5 15.5s26.167 -5.16699 36.5 -15.5s15.5 -22.166 15.5 -35.499z" />
    <glyph glyph-name="semicolon" unicode=";" horiz-adv-x="216" 
d="M165 407c0 -14.667 -5.16699 -27.167 -15.5 -37.5s-22.5 -15.5 -36.5 -15.5s-26.167 5 -36.5 15s-15.5 22 -15.5 36c0 14.667 5.16699 27 15.5 37s22.5 15 36.5 15s26.167 -5 36.5 -15s15.5 -21.667 15.5 -35zM166 86l-74 -194h-59l48 194h85z" />
    <glyph glyph-name="less" unicode="&#x3c;" 
d="M330 114l-300 120v74l300 120v-74l-217 -83l217 -83v-74z" />
    <glyph glyph-name="equal" unicode="=" 
d="M327 322h-291v65h291v-65zM327 152h-291v64h291v-64z" />
    <glyph glyph-name="greater" unicode="&#x3e;" 
d="M330 234l-300 -120v74l217 83l-217 83v74l300 -120v-74z" />
    <glyph glyph-name="question" unicode="?" horiz-adv-x="341" 
d="M322 549c0 -55.333 -12.001 -102.002 -36.001 -140.002l-68 -105c-8.66699 -13.333 -13 -32.333 -13 -57v-51h-69v51c0 36.667 7.33301 66.334 22 89.001l69 106c17.333 26.667 26 62.334 26 107.001c0 37.333 -5.66699 64 -17 80s-29.666 24 -54.999 24
c-26.667 0 -46.167 -8.83301 -58.5 -26.5s-18.833 -48.167 -19.5 -91.5h-69c2 122 51 183 147 183c94 0 141 -56.333 141 -169zM226.999 46.998c0 -14.667 -5.16699 -27.168 -15.5 -37.501s-22.5 -15.5 -36.5 -15.5s-26.167 5 -36.5 15s-15.5 22.333 -15.5 37
c0 14 5.16699 26.167 15.5 36.5s22.5 15.5 36.5 15.5s26.167 -5.16699 36.5 -15.5s15.5 -22.166 15.5 -35.499z" />
    <glyph glyph-name="at" unicode="@" horiz-adv-x="492" 
d="M448 0l-67 0.000976562v36c-18.667 -28 -47.334 -42 -86.001 -42c-76.667 0 -115 53 -115 159v170c0 105.333 38.333 158 115 158c36.667 0 65.334 -12.333 86.001 -37v72c0 44.667 -7.5 78.167 -22.5 100.5s-43.833 33.5 -86.5 33.5h-51
c-42.667 0 -71.5 -11.167 -86.5 -33.5s-22.5 -55.833 -22.5 -100.5v-366c0 -32 2.33301 -54.833 7 -68.5s15.334 -29.834 32.001 -48.501l-49 -42c-22.667 22.667 -37.834 44 -45.501 64s-11.5 51 -11.5 93v367c0 132 56.667 198 170 198h63c113.333 0 170 -66 170 -198
v-515zM382 160.001v154c0 40.667 -5.5 68.667 -16.5 84s-28.167 23 -51.5 23c-22.667 0 -39.5 -7.66699 -50.5 -23s-16.5 -43.333 -16.5 -84v-154c0 -40.667 4.66699 -68.5 14 -83.5s25.333 -22.5 48 -22.5c23.333 0 41.333 7.83301 54 23.5s19 43.167 19 82.5z" />
    <glyph glyph-name="A" unicode="A" horiz-adv-x="418" 
d="M408 0h-73l-34 150h-185l-33 -150h-72l165 712h64zM286 213l-16 73l-34 147l-16 73l-13 71l-13 -71l-64 -293h156z" />
    <glyph glyph-name="B" unicode="B" horiz-adv-x="448" 
d="M411 188c0 -61.333 -15.833 -108.002 -47.5 -140.002s-78.167 -48 -139.5 -48h-156v712h151c62.667 0 109 -15 139 -45s45 -75.333 45 -136v-19c0 -36.667 -7.33301 -68 -22 -94s-35 -43.333 -61 -52c26.667 -7.33301 48.5 -25.166 65.5 -53.499
s25.5 -63.166 25.5 -104.499v-20zM329 520.998c0 45.333 -8.5 77.5 -25.5 96.5s-47.167 28.5 -90.5 28.5h-71v-249h74c44 0 73.833 10 89.5 30s23.5 51.333 23.5 94zM338 198.998c0 44 -8.49902 77.167 -25.499 99.5s-48.5 33.5 -94.5 33.5h-76v-266h76
c45.333 0 76.666 11.167 93.999 33.5s26 55.5 26 99.5z" />
    <glyph glyph-name="C" unicode="C" horiz-adv-x="423" 
d="M388 196c-2.66699 -134.667 -58.3359 -201.998 -167.003 -201.998c-114 0 -171 68.667 -171 206v312c0 75.333 16 128.5 48 159.5s73 46.5 123 46.5c108.667 0 164.334 -65 167.001 -195h-74c-1.33301 44 -8.66602 76.333 -21.999 97s-37 31 -71 31
c-30.667 0 -54.5 -9.83301 -71.5 -29.5s-25.5 -58.834 -25.5 -117.501v-295c0 -58.667 8.5 -98 25.5 -118s40.833 -30 71.5 -30c32 0 55.333 10.167 70 30.5s22.334 55.166 23.001 104.499h74z" />
    <glyph glyph-name="D" unicode="D" horiz-adv-x="457" 
d="M407 204c0 -64 -15.668 -114 -47.001 -150s-76.666 -54 -135.999 -54h-156v712h155c122.667 0 184 -68.333 184 -205v-303zM333.999 213v285c0 56 -10.167 94.667 -30.5 116s-49.833 32 -88.5 32h-73v-580h74c78.667 0 118 49 118 147z" />
    <glyph glyph-name="E" unicode="E" horiz-adv-x="388" 
d="M361 0h-301v712h299v-66h-225v-253h187v-66h-187v-261h227v-66z" />
    <glyph glyph-name="F" unicode="F" horiz-adv-x="385" 
d="M359 646h-225v-264h186v-66h-186v-316h-74v712h299v-66z" />
    <glyph glyph-name="G" unicode="G" horiz-adv-x="442" 
d="M394 203c0 -139.333 -57.333 -208.998 -172 -208.998s-172 68.667 -172 206v312c0 75.333 16 128.5 48 159.5s73 46.5 123 46.5c108 0 164 -64 168 -192h-75c-1.33301 44.667 -9.33301 76.667 -24 96s-37.667 29 -69 29c-30.667 0 -54.5 -9.83301 -71.5 -29.5
s-25.5 -58.834 -25.5 -117.501v-295c0 -58.667 8.5 -98 25.5 -118s41.167 -30 72.5 -30c32 0 56.5 10.167 73.5 30.5s25.5 60.166 25.5 119.499v96h-104v65h177v-169z" />
    <glyph glyph-name="H" unicode="H" horiz-adv-x="481" 
d="M413 0h-74v326h-197v-326h-74v712h74v-319h197v319h74v-712z" />
    <glyph glyph-name="I" unicode="I" horiz-adv-x="214" 
d="M144 0h-74v712h74v-712z" />
    <glyph glyph-name="J" unicode="J" horiz-adv-x="377" 
d="M313 199c0 -136.667 -50.667 -205 -152 -205c-62 0 -110 27.667 -144 83l59 40c24.667 -37.333 52.667 -56 84 -56c28.667 0 49 11 61 33s18 60.667 18 116v502h74v-513z" />
    <glyph glyph-name="K" unicode="K" horiz-adv-x="440" 
d="M432 0h-79l-146 349l-65 -117v-232h-74v712h74v-360l195 360h75l-157 -285z" />
    <glyph glyph-name="L" unicode="L" horiz-adv-x="384" 
d="M367 0h-299v712h74v-646h225v-66z" />
    <glyph glyph-name="M" unicode="M" horiz-adv-x="571" 
d="M503 0h-70v444l3 83l-16 -60l-106 -352h-54l-109 352l-15 60l2 -83v-444h-70v712h72l147 -492l144 492h72v-712z" />
    <glyph glyph-name="N" unicode="N" horiz-adv-x="498" 
d="M429 0h-67l-207 498l-20 57l3 -64v-491h-70v712h68l206 -496l20 -60l-2 66v490h69v-712z" />
    <glyph glyph-name="O" unicode="O" horiz-adv-x="443" 
d="M393 200c0 -137.333 -57 -206 -171 -206c-114.667 0 -172 68.667 -172 206v312c0 137.333 57.333 206 172 206c114 0 171 -68.667 171 -206v-312zM320 209v295c0 58.667 -8.5 97.834 -25.5 117.501s-41.167 29.5 -72.5 29.5s-55.5 -9.83301 -72.5 -29.5
s-25.5 -58.834 -25.5 -117.501v-295c0 -58.667 8.5 -98 25.5 -118s41.167 -30 72.5 -30s55.5 10 72.5 30s25.5 59.333 25.5 118z" />
    <glyph glyph-name="P" unicode="P" horiz-adv-x="436" 
d="M405 488c0 -130 -59 -195 -177 -195h-86v-293h-74v712h160c118 0 177 -65 177 -195v-29zM332 494v16.998c0 48.667 -8.16699 83.334 -24.5 104.001s-45.5 31 -87.5 31h-78v-287h78c41.333 0 70.333 10.333 87 31s25 55.334 25 104.001z" />
    <glyph glyph-name="Q" unicode="Q" horiz-adv-x="444" 
d="M414 -2l-52 -47l-57 61c-23.333 -12 -51 -18 -83 -18c-114.667 0 -172 68.667 -172 206v312c0 137.333 57.333 206 172 206s172 -68.667 172 -206v-312c0 -61.333 -12.333 -109 -37 -143zM320 209v295c0 58.667 -8.5 97.834 -25.5 117.501s-41.167 29.5 -72.5 29.5
s-55.5 -9.83301 -72.5 -29.5s-25.5 -58.834 -25.5 -117.501v-295c0 -58.667 8.5 -98 25.5 -118s41.167 -30 72.5 -30c13.333 0 24.333 1.33301 33 4l-62 66l50 47l10.5 -11l20 -21.5l22.5 -23.5l9 -10c10 22 15 54.333 15 97z" />
    <glyph glyph-name="R" unicode="R" horiz-adv-x="447" 
d="M421 0h-78l-123 317h-79v-317h-73v712h170c55.333 0 96.833 -16.167 124.5 -48.5s41.5 -77.5 41.5 -135.5v-24c0 -94 -37 -153 -111 -177zM329 507l-0.000976562 12c0 44.667 -8.16699 77 -24.5 97s-42.166 30 -77.499 30h-86v-266h86c68 0 102 42.333 102 127z" />
    <glyph glyph-name="S" unicode="S" horiz-adv-x="400" 
d="M366 191c0 -69.333 -14.5 -119.501 -43.5 -150.501s-71.833 -46.5 -128.5 -46.5c-51.333 0 -91 14.5 -119 43.5s-43 70.833 -45 125.5h72c2.66699 -37.333 11.334 -63.5 26.001 -78.5s37 -22.5 67 -22.5c34.667 0 59.667 9.83301 75 29.5s23 51.834 23 96.501
c0 47.333 -7.66699 81.333 -23 102c-12 14.667 -32 27 -60 37l-37 13c-26.667 9.33301 -46.834 18.333 -60.501 27s-26.167 20 -37.5 34c-22.667 28.667 -34 74 -34 136c0 120.667 53.667 181 161 181c48.667 0 86 -12.333 112 -37s41 -66 45 -124h-72
c-2 34 -9.5 58.5 -22.5 73.5s-34.167 22.5 -63.5 22.5c-30.667 0 -53 -9 -67 -27s-21 -47 -21 -87c0 -42.667 6.33301 -72 19 -88c10.667 -14.667 31.334 -27.334 62.001 -38.001l35 -12c45.333 -15.333 77.666 -34 96.999 -56c26.667 -31.333 40 -82.666 40 -153.999z" />
    <glyph glyph-name="T" unicode="T" horiz-adv-x="366" 
d="M351 646h-132v-646h-73v646h-132v66h337v-66z" />
    <glyph glyph-name="U" unicode="U" horiz-adv-x="467" 
d="M404 197c0 -135.333 -56.666 -203 -169.999 -203c-56.667 0 -99.334 16.167 -128.001 48.5s-43 83.833 -43 154.5v515h73v-510c0 -51.333 7.66699 -87.666 23 -108.999s40.333 -32 75 -32c34 0 58.667 10.667 74 32s23 57.666 23 108.999v510h73v-515z" />
    <glyph glyph-name="V" unicode="V" horiz-adv-x="409" 
d="M399 712l-162 -712h-62l-166 712h75l108 -490l15 -88l15 88l104 490h73z" />
    <glyph glyph-name="W" unicode="W" horiz-adv-x="590" 
d="M576 712l-115 -712h-66l-90 485l-13 84l-12 -84l-89 -485h-66l-117 712h75l70 -468l11 -94l13 94l84 468h63l86 -468l13 -94l11 94l68 468h74z" />
    <glyph glyph-name="X" unicode="X" horiz-adv-x="386" 
d="M383 0h-78l-97 243l-17 52l-17 -52l-95 -243h-76l151 369l-140 343h78l83 -211l19 -58l19 58l83 211h75l-140 -343z" />
    <glyph glyph-name="Y" unicode="Y" horiz-adv-x="382" 
d="M377 712l-149 -426v-286h-74v286l-149 426h76l89 -268l21 -75l20 75l89 268h77z" />
    <glyph glyph-name="Z" unicode="Z" horiz-adv-x="372" 
d="M340 0h-308v68l230 578h-221v66h299v-64l-232 -582h232v-66z" />
    <glyph glyph-name="bracketleft" unicode="[" horiz-adv-x="253" 
d="M223 -74h-150v860h150v-63h-81v-734h81v-63z" />
    <glyph glyph-name="backslash" unicode="\" horiz-adv-x="262" 
d="M264 -74h-66l-200 860h66z" />
    <glyph glyph-name="bracketright" unicode="]" horiz-adv-x="253" 
d="M179 -74h-150v63h81v734h-81v63h150v-860z" />
    <glyph glyph-name="asciicircum" unicode="^" 
d="M324 413h-66l-78 219l-79 -219h-65l116 305h55z" />
    <glyph glyph-name="underscore" unicode="_" horiz-adv-x="377" 
d="M377 -165h-377v51h377v-51z" />
    <glyph glyph-name="grave" unicode="`" horiz-adv-x="472" 
d="M271 594h-53l-86 153h70z" />
    <glyph glyph-name="a" unicode="a" horiz-adv-x="363" 
d="M312 0l-68.999 0.000976562v48c-18.667 -34 -48.667 -51 -90 -51c-42 0 -72.667 13 -92 39c-18.667 25.333 -28 59.666 -28 102.999c0 46 12.167 81.167 36.5 105.5s57.166 36.5 98.499 36.5h75v79c0 27.333 -5 46.333 -15 57s-25.333 16 -46 16
c-42 0 -65 -23.667 -69 -71h-67c2 44 16 77.167 42 99.5s58 33.5 96 33.5c40.667 0 72.167 -10.5 94.5 -31.5s33.5 -52.5 33.5 -94.5v-369zM243.001 171.001v56h-68c-50 0 -75 -28.667 -75 -86s21.667 -86 65 -86c26 0 46.667 10.667 62 32c10.667 16 16 44 16 84z" />
    <glyph glyph-name="b" unicode="b" horiz-adv-x="375" 
d="M337 159c0 -39.333 -6.33398 -73.332 -19.001 -101.999c-19.333 -42 -53.666 -63 -102.999 -63c-44 0 -75.333 16.333 -94 49v-43h-69v712h69v-269c20 34.667 52 52 96 52c47.333 0 81 -21.667 101 -65c12.667 -28.667 19 -61.334 19 -98.001v-173zM267.999 166.001v157
c0 40 -6 68.333 -18 85s-30 25 -54 25c-50 0 -75 -36.667 -75 -110v-157c0 -73.333 25 -110 75 -110c24 0 42 8.33301 54 25s18 45 18 85z" />
    <glyph glyph-name="c" unicode="c" horiz-adv-x="339" 
d="M312 140c-1.33301 -45.333 -13.6689 -81 -37.002 -107s-56.666 -39 -99.999 -39c-41.333 0 -74.5 14 -99.5 42s-37.5 70.333 -37.5 127v163c0 56.667 12.5 99 37.5 127s58.167 42 99.5 42c88 0 133.333 -48 136 -144h-68c-2 29.333 -8 50.333 -18 63s-26.667 19 -50 19
c-22 0 -38.833 -8.33301 -50.5 -25s-17.5 -45 -17.5 -85v-156c0 -40.667 5.83301 -69.334 17.5 -86.001s28.5 -25 50.5 -25c22.667 0 39.334 6.83301 50.001 20.5s16.667 34.834 18 63.501h69z" />
    <glyph glyph-name="d" unicode="d" horiz-adv-x="375" 
d="M323 0l-69.001 -0.000976562v43c-18.667 -32.667 -50 -49 -94 -49c-50 0 -84.333 21 -103 63c-12.667 28.667 -19 62.667 -19 102v173c0 36.667 6.33301 69.334 19 98.001c18.667 43.333 52.334 65 101.001 65c44 0 76 -17.333 96 -52v269h69v-712zM254.999 165.999v157
c0 73.333 -25.333 110 -76 110c-23.333 0 -41.166 -8.33301 -53.499 -25s-18.5 -45 -18.5 -85v-157c0 -40 6.16699 -68.333 18.5 -85s30.166 -25 53.499 -25c50.667 0 76 36.667 76 110z" />
    <glyph glyph-name="e" unicode="e" horiz-adv-x="355" 
d="M317 224h-211.001v-52c0 -43.333 6.16699 -73.666 18.5 -90.999s31.166 -26 56.499 -26c22.667 0 39.334 5.83301 50.001 17.5s16.334 31.167 17.001 58.5h67c-2 -43.333 -14.167 -77 -36.5 -101s-54.833 -36 -97.5 -36c-44.667 0 -79.667 14.167 -105 42.5
s-38 72.166 -38 131.499v154c0 58.667 12.5 102.167 37.5 130.5s59.5 42.5 103.5 42.5c92 0 138 -56.333 138 -169v-102zM248.999 279v46.001c0 40.667 -5.5 69.167 -16.5 85.5s-28.833 24.5 -53.5 24.5s-43 -8.33301 -55 -25s-18 -46.334 -18 -89.001v-42h143z" />
    <glyph glyph-name="f" unicode="f" horiz-adv-x="215" 
d="M202 437l-69 -0.000976562v-437h-69v437h-47v54h47v113c0 34.667 8.66699 61.334 26 80.001s42 28 74 28h38v-63h-26c-15.333 0 -26.333 -4 -33 -12s-10 -21.667 -10 -41v-105h69v-54z" />
    <glyph glyph-name="g" unicode="g" horiz-adv-x="372" 
d="M323 -55c0 -62 -11.833 -106.168 -35.5 -132.501s-58.834 -39.5 -105.501 -39.5c-40.667 0 -73 11 -97 33s-37.333 54.667 -40 98h68c3.33301 -46.667 26.333 -70 69 -70c25.333 0 43.666 8.66699 54.999 26s17 47.333 17 90v99c-18 -33.333 -49.333 -50 -94 -50
c-49.333 0 -83.666 21 -102.999 63c-12.667 29.333 -19 63.333 -19 102v168c0 36.667 6.33301 69.334 19 98.001c18.667 43.333 52.334 65 101.001 65c44 0 76 -17.333 96 -52v48h69v-546zM255 170.999l-0.000976562 152c0 73.333 -25.333 110 -76 110
c-23.333 0 -41.166 -8.33301 -53.499 -25s-18.5 -45 -18.5 -85v-152c0 -73.333 24 -110 72 -110c50.667 0 76 36.667 76 110z" />
    <glyph glyph-name="h" unicode="h" horiz-adv-x="378" 
d="M327 0l-68.999 0.000976562v352c0 28.667 -4.83301 49 -14.5 61s-25.5 18 -47.5 18c-48.667 0 -73 -26.333 -73 -79v-352h-69v712h69v-268c18 34 49 51 93 51c37.333 0 65.166 -11.333 83.499 -34s27.5 -53.334 27.5 -92.001v-369z" />
    <glyph glyph-name="i" unicode="i" horiz-adv-x="191" 
d="M143 671c0 -13.333 -4.66504 -24.832 -13.998 -34.499s-20.333 -14.5 -33 -14.5s-23.834 4.66699 -33.501 14s-14.5 20.333 -14.5 33c0 13.333 4.66699 24.666 14 33.999s20.333 14 33 14c13.333 0 24.666 -4.5 33.999 -13.5s14 -19.833 14 -32.5zM131.002 0.000976562
h-71v491h71v-491z" />
    <glyph glyph-name="j" unicode="j" horiz-adv-x="192" 
d="M146 671c0 -13.333 -4.66895 -24.832 -14.002 -34.499s-20.333 -14.5 -33 -14.5c-13.333 0 -24.666 4.66699 -33.999 14s-14 20.333 -14 33c0 13.333 4.5 24.666 13.5 33.999s20.167 14 33.5 14c12.667 0 23.834 -4.5 33.501 -13.5s14.5 -19.833 14.5 -32.5z
M134.998 -100.999c0 -37.333 -9.16699 -66.501 -27.5 -87.501s-45.833 -31.5 -82.5 -31.5h-24v62h15c18 0 30.667 4.83301 38 14.5s11 24.834 11 45.501v589h70v-592z" />
    <glyph glyph-name="k" unicode="k" horiz-adv-x="363" 
d="M345 0h-73l-103 241l-6 -10l-21.5 -35l-20.5 -33v-163h-67v712h67v-445l134 224h72l-111 -184z" />
    <glyph glyph-name="l" unicode="l" horiz-adv-x="191" 
d="M130 0h-69v712h69v-712z" />
    <glyph glyph-name="m" unicode="m" horiz-adv-x="583" 
d="M532 0l-69.001 0.000976562v352c0 28.667 -5 49 -15 61s-26 18 -48 18c-48.667 0 -73 -26.333 -73 -79v-352h-69v352c0 28.667 -5 49 -15 61s-25.667 18 -47 18c-48.667 0 -73 -26.333 -73 -79v-352h-69v491h69v-47c19.333 34 50.333 51 93 51
c46 0 77.333 -17.667 94 -53c24.667 35.333 61.667 53 111 53c36.667 0 64.334 -11.333 83.001 -34s28 -53.334 28 -92.001v-369z" />
    <glyph glyph-name="n" unicode="n" horiz-adv-x="378" 
d="M327 0l-68.999 0.000976562v352c0 28.667 -4.83301 49 -14.5 61s-25.5 18 -47.5 18c-48.667 0 -73 -26.333 -73 -79v-352h-69v491h69v-47c18 34 49 51 93 51c37.333 0 65.166 -11.333 83.499 -34s27.5 -53.334 27.5 -92.001v-369z" />
    <glyph glyph-name="o" unicode="o" horiz-adv-x="359" 
d="M321 162c0 -56.667 -12.5 -98.834 -37.5 -126.501s-59.833 -41.5 -104.5 -41.5c-44 0 -78.5 13.833 -103.5 41.5s-37.5 69.834 -37.5 126.501v166c0 56 12.5 97.833 37.5 125.5s59.5 41.5 103.5 41.5s78.667 -13.833 104 -41.5s38 -69.5 38 -125.5v-166zM252 166v158
c0 40 -6 68.167 -18 84.5s-30.333 24.5 -55 24.5c-24 0 -42 -8.16699 -54 -24.5s-18 -44.5 -18 -84.5v-158c0 -40.667 6 -69.167 18 -85.5s30 -24.5 54 -24.5c24.667 0 43 8.16699 55 24.5s18 44.833 18 85.5z" />
    <glyph glyph-name="p" unicode="p" horiz-adv-x="377" 
d="M339 159c0 -39.333 -6.33398 -73.332 -19.001 -101.999c-18.667 -42 -53 -63 -103 -63c-44 0 -75.333 16.333 -94 49v-264h-69v712h69v-48c20 34.667 52 52 96 52c48.667 0 82.334 -21.667 101.001 -65c12.667 -28.667 19 -61.334 19 -98.001v-173zM269.999 166.001v157
c0 40 -6.16699 68.333 -18.5 85s-30.166 25 -53.499 25c-50.667 0 -76 -36.667 -76 -110v-157c0 -73.333 25.333 -110 76 -110c23.333 0 41.166 8.33301 53.499 25s18.5 45 18.5 85z" />
    <glyph glyph-name="q" unicode="q" horiz-adv-x="377" 
d="M323 -221l-69.001 -0.000976562v264c-18.667 -32.667 -50 -49 -94 -49c-50 0 -84.333 21 -103 63c-12.667 28.667 -19 62.667 -19 102v173c0 36.667 6.33301 69.334 19 98.001c18.667 43.333 52.334 65 101.001 65c44 0 76 -17.333 96 -52v48h69v-712zM254.999 165.999
v157c0 73.333 -25.333 110 -76 110c-23.333 0 -41.166 -8.33301 -53.499 -25s-18.5 -45 -18.5 -85v-157c0 -40 6.16699 -68.333 18.5 -85s30.166 -25 53.499 -25c50.667 0 76 36.667 76 110z" />
    <glyph glyph-name="r" unicode="r" horiz-adv-x="264" 
d="M243 424h-5.00098c-2.66699 0.666992 -6.66699 1.16699 -12 1.5s-10.666 0.5 -15.999 0.5c-58 0 -87 -30 -87 -90v-336h-69v491h69v-52c18.667 36 52.667 54 102 54l18 -1v-68z" />
    <glyph glyph-name="s" unicode="s" horiz-adv-x="329" 
d="M292 140c0 -97.333 -43.0039 -145.999 -129.004 -145.999c-81.333 0 -124.666 44.667 -129.999 134h67c2 -26 7.83301 -44.667 17.5 -56s24.834 -17 45.501 -17c23.333 0 39.666 6.66699 48.999 20s14 34.333 14 63c0 24 -3 41 -9 51s-19 18.333 -39 25l-44 14
c-34.667 11.333 -59 26.666 -73 45.999s-21 49 -21 89c0 45.333 11.333 79 34 101s53 33 91 33c80 0 121.333 -41 124 -123h-66c-1.33301 24 -6.66602 40.5 -15.999 49.5s-23.666 13.5 -42.999 13.5c-21.333 0 -36.333 -5.33301 -45 -16s-13 -29 -13 -55
c0 -24 3.16699 -41 9.5 -51s18.833 -18 37.5 -24l43 -14c34.667 -11.333 59.334 -26 74.001 -44s22 -49 22 -93z" />
    <glyph glyph-name="t" unicode="t" horiz-adv-x="221" 
d="M202 0l-38 -0.000976562c-32 0 -56.667 9.33301 -74 28s-26 45.334 -26 80.001v329h-47v54h47v152h69v-152h69v-54h-69v-321c0 -19.333 3.33301 -33 10 -41s17.667 -12 33 -12h26v-63z" />
    <glyph glyph-name="u" unicode="u" horiz-adv-x="378" 
d="M324 0h-69.001v47c-18 -34 -49 -51 -93 -51c-37.333 0 -65.166 11.333 -83.499 34s-27.5 53.667 -27.5 93v368h69v-352c0 -28 4.83301 -48 14.5 -60s25.5 -18 47.5 -18c48.667 0 73 26.333 73 79v351h69v-491z" />
    <glyph glyph-name="v" unicode="v" horiz-adv-x="314" 
d="M309 491l-122 -491h-60l-122 491h71l69 -305l12 -76l12 76l70 305h70z" />
    <glyph glyph-name="w" unicode="w" horiz-adv-x="496" 
d="M494 491l-103 -491h-61l-69 313l-12 65l-11 -65l-69 -313h-61l-103 491h71l58 -312l9 -68l11 68l68 312h55l68 -312l11 -68l9 68l58 312h71z" />
    <glyph glyph-name="x" unicode="x" horiz-adv-x="322" 
d="M307 0h-71l-62 152l-13 42l-12 -42l-64 -152h-70l110 251l-105 240h70l59 -141l12 -40l13 40l57 141h71l-106 -240z" />
    <glyph glyph-name="y" unicode="y" horiz-adv-x="306" 
d="M309 491l-148.998 -602c-8 -32 -18 -54.667 -30 -68c-16.667 -21.333 -45.334 -32 -86.001 -32h-17v64h14c17.333 0 29.666 4.16699 36.999 12.5s14 24.833 20 49.5l25 101l-118 475h71l69 -308l12 -68l12 68l70 308h70z" />
    <glyph glyph-name="z" unicode="z" horiz-adv-x="307" 
d="M277 0h-246v61l170 366h-159v64h235v-61l-171 -366h171v-64z" />
    <glyph glyph-name="braceleft" unicode="{" horiz-adv-x="274" 
d="M243 -74l-33 0.00195312c-43.333 0 -73.666 12.333 -90.999 37c-12.667 18 -19 48.667 -19 92v193c0 26 -4.33301 45 -13 57c-10.667 12.667 -24.667 19 -42 19h-17v64h17c17.333 0 31.333 6.33301 42 19c8.66699 12 13 30.667 13 56v194c0 43.333 6.33301 74 19 92
c17.333 24.667 47.666 37 90.999 37h33v-62h-24c-21.333 0 -35.666 -5.33301 -42.999 -16c-4.66699 -8.66699 -7 -27.334 -7 -56.001v-199c0 -28 -4.5 -49 -13.5 -63s-23.833 -25.333 -44.5 -34c20.667 -8.66699 35.5 -20 44.5 -34s13.5 -35.333 13.5 -64v-198
c0 -28.667 2.33301 -47.334 7 -56.001c7.33301 -10.667 21.666 -16 42.999 -16h24v-62z" />
    <glyph glyph-name="bar" unicode="|" horiz-adv-x="241" 
d="M155 -74h-66v860h66v-860z" />
    <glyph glyph-name="braceright" unicode="}" horiz-adv-x="274" 
d="M246 324l-17 -0.00195312c-17.333 0 -31.333 -6.33301 -42 -19c-8.66699 -12 -13 -31 -13 -57v-193c0 -43.333 -6.33301 -74 -19 -92c-17.333 -24.667 -47.666 -37 -90.999 -37h-33v62h24c22.667 0 37 5.33301 43 16c4.66699 8.66699 7 27.334 7 56.001v198
c0 28 4.66699 49.167 14 63.5s24.333 25.833 45 34.5c-20.667 8.66699 -35.667 20 -45 34s-14 35 -14 63v199c0 28.667 -2.33301 47.334 -7 56.001c-6 10.667 -20.333 16 -43 16h-24v62h33c43.333 0 73.666 -12.333 90.999 -37c12.667 -18 19 -48.667 19 -92v-194
c0 -25.333 4.33301 -44 13 -56c10.667 -12.667 24.667 -19 42 -19h17v-64z" />
    <glyph glyph-name="asciitilde" unicode="~" 
d="M351 287c-14.667 -24.667 -29.666 -43.166 -44.999 -55.499s-35.666 -18.5 -60.999 -18.5c-19.333 0 -43 9.33301 -71 28l-11 7.5c-5.33301 3.66699 -9.16602 6.16699 -11.499 7.5l-9.5 5.5c-4 2.33301 -7.83301 3.83301 -11.5 4.5s-7.16699 1 -10.5 1
c-12.667 0 -23.334 -3.33301 -32.001 -10s-18 -18 -28 -34l-48 33c15.333 24 30.666 42.167 45.999 54.5s35.333 18.5 60 18.5c19.333 0 43.666 -9.33301 72.999 -28l13 -8.5l14 -9c2.66699 -1.66699 6.5 -3.33398 11.5 -5.00098s9.83301 -2.5 14.5 -2.5
c12.667 0 23.167 3.16699 31.5 9.5s17.5 17.833 27.5 34.5z" />
    <glyph glyph-name="nbspace" unicode="&#xa0;" horiz-adv-x="173" 
 />
    <glyph glyph-name="sterling" unicode="&#xa3;" 
d="M349 537h-69c0 17.333 -0.666992 31.833 -2 43.5s-4.5 24 -9.5 37s-13 22.667 -24 29s-25.167 9.5 -42.5 9.5c-28 0 -47.5 -8.5 -58.5 -25.5s-16.5 -46.5 -16.5 -88.5v-160h125v-50h-125v-268h216v-64h-285v332h-52v50h52v167c0 113.333 48 170 144 170
c46 0 82 -14.167 108 -42.5s39 -71.833 39 -130.5v-9z" />
    <glyph glyph-name="currency" unicode="&#xa4;" 
d="M345 167c0 -57.333 -13.333 -100.5 -40 -129.5s-61.667 -43.5 -105 -43.5c-44 0 -79.167 14.5 -105.5 43.5s-39.5 72.167 -39.5 129.5v122h-46v50h46v48h-46v50h46v108c0 57.333 13.167 100.5 39.5 129.5s61.5 43.5 105.5 43.5c43.333 0 78.333 -14.5 105 -43.5
s40 -72.167 40 -129.5v-13h-69v9c0 39.333 -6 68.166 -18 86.499s-31.333 27.5 -58 27.5c-27.333 0 -46.833 -9.16699 -58.5 -27.5s-17.5 -47.166 -17.5 -86.499v-104h177l-15 -50h-162v-48h147l-15 -50h-132v-118c0 -39.333 5.83301 -68.166 17.5 -86.499
s31.167 -27.5 58.5 -27.5c26.667 0 46 9.16699 58 27.5s18 47.166 18 86.499v7h69v-11z" />
    <glyph glyph-name="brokenbar" unicode="&#xa6;" horiz-adv-x="215" 
d="M143 436h-72v350h72v-350zM143 -74h-72v350h72v-350z" />
    <glyph glyph-name="section" unicode="&#xa7;" horiz-adv-x="556" 
d="M470 256c0 -72 -34.667 -127.332 -104 -165.999c64.667 -29.333 97 -77.333 97 -144c0 -50.667 -17.333 -92 -52 -124s-79.334 -48 -134.001 -48c-52.667 0 -95.834 14 -129.501 42s-52.834 67.667 -57.501 119h73c8.66699 -63.333 47 -95 115 -95
c34.667 0 62 9.16699 82 27.5s30 43.166 30 74.499c0 24.667 -7.83301 46.334 -23.5 65.001s-37.167 32 -64.5 40l-78 22c-43.333 12 -77 33.833 -101 65.5s-36 69.834 -36 114.501c0 72 35 127.667 105 167c-62 29.333 -93 74.666 -93 135.999
c0 49.333 16.667 89.333 50 120s77 46 131 46c52.667 0 94.834 -13.667 126.501 -41s49.834 -66 54.501 -116h-72c-4 33.333 -14.667 57.166 -32 71.499s-43.666 21.5 -78.999 21.5c-33.333 0 -59.5 -8.66699 -78.5 -26s-28.5 -41.333 -28.5 -72c0 -48.667 28 -81 84 -97
l78 -22c42.667 -12 76.167 -34.167 100.5 -66.5s36.5 -70.5 36.5 -114.5zM397 252.001c0 39.333 -10.667 70.668 -32 94.001s-50 35 -86 35c-35.333 0 -64 -11.833 -86 -35.5s-33 -54.167 -33 -91.5c0 -38.667 11 -69.834 33 -93.501s50.667 -35.5 86 -35.5
s63.833 11.667 85.5 35s32.5 54 32.5 92z" />
    <glyph glyph-name="copyright" unicode="&#xa9;" horiz-adv-x="800" 
d="M762 363c0 -103.333 -35 -190.667 -105 -262s-155.667 -107 -257 -107c-100 0 -185.333 35.333 -256 106s-106 156 -106 256s35.333 185.333 106 256s156 106 256 106c98 0 182.833 -35.167 254.5 -105.5s107.5 -153.5 107.5 -249.5zM703 349.999
c0 87.333 -29.332 161.5 -87.999 222.5s-130.334 91.5 -215.001 91.5c-83.333 0 -154.666 -30.167 -213.999 -90.5s-89 -132.833 -89 -217.5s29.667 -157.167 89 -217.5s130.666 -90.5 213.999 -90.5c82 0 153 30 213 90s90 130.667 90 212zM536.001 204.999
c-24.667 -21.333 -45.998 -34.999 -63.998 -40.999c-18.667 -7.33301 -40.667 -11 -66 -11c-55.333 0 -99 18.167 -131 54.5s-48 85.833 -48 148.5s16 112.334 48 149.001s75.667 55 131 55c21.333 0 42.666 -3.33301 63.999 -10c18.667 -6.66699 40.667 -21 66 -43l-37 -37
c-18 15.333 -33.333 25.666 -46 30.999s-28.334 8 -47.001 8c-82 0 -123 -52.667 -123 -158c0 -47.333 10.667 -83.833 32 -109.5s52 -38.5 92 -38.5c18 0 33.333 2.66699 46 8s28 15.666 46 30.999z" />
    <glyph glyph-name="guillemotleft" unicode="&#xab;" horiz-adv-x="441" 
d="M402 76l-192 192l192 191v-89l-104 -102l104 -103v-89zM218 76l-191 192l191 191v-89l-102 -102l102 -103v-89z" />
    <glyph glyph-name="logicalnot" unicode="&#xac;" 
d="M332 103h-68v137h-235v67h303v-204z" />
    <glyph glyph-name="registered" unicode="&#xae;" horiz-adv-x="438" 
d="M407 534c0 -53.333 -18.167 -98.5 -54.5 -135.5s-80.833 -55.5 -133.5 -55.5c-52 0 -96.333 18.333 -133 55s-55 81 -55 133s18.333 96.333 55 133s81 55 133 55c50.667 0 94.667 -18.333 132 -55s56 -80 56 -130zM378 528c0 45.333 -15.3311 83.833 -45.998 115.5
s-68.334 47.5 -113.001 47.5c-43.333 0 -80.5 -15.667 -111.5 -47s-46.5 -69 -46.5 -113c0 -44.667 15.5 -82.667 46.5 -114s68.167 -47 111.5 -47s80.666 15.667 111.999 47s47 68.333 47 111zM298.002 428l-33 -0.000976562l-47 84h-31v-84h-29v206h71
c18 0 33.167 -6 45.5 -18s18.5 -27 18.5 -45c0 -27.333 -14.667 -45.666 -44 -54.999zM264.002 571.999c0 10.667 -3.66699 19.332 -11 25.999s-16.666 10 -27.999 10h-38v-72h38c11.333 0 20.666 3.33301 27.999 10s11 15.334 11 26.001z" />
    <glyph glyph-name="degree" unicode="&#xb0;" horiz-adv-x="337" 
d="M293 599c0 -36 -12 -66.167 -36 -90.5s-53.333 -36.5 -88 -36.5s-64 12 -88 36s-36 53.333 -36 88s12 64 36 88s53.333 36 88 36c33.333 0 62.333 -12 87 -36s37 -52.333 37 -85zM231 594c0 20 -6 36.167 -18 48.5s-27 18.5 -45 18.5s-32.833 -6 -44.5 -18
s-17.5 -27.667 -17.5 -47s6 -35 18 -47s27 -18 45 -18c17.333 0 32 6 44 18s18 27 18 45z" />
    <glyph glyph-name="plusminus" unicode="&#xb1;" 
d="M329 267h-115v-128h-66v128h-116v63h116v127h66v-127h115v-63zM329 0h-296v64h296v-64z" />
    <glyph glyph-name="paragraph" unicode="&#xb6;" horiz-adv-x="405" 
d="M352 -219h-58v869h-49v-869h-58v632c-44.667 0 -81.167 15 -109.5 45s-42.5 65 -42.5 105c0 42.667 15 78.167 45 106.5s70.667 42.5 122 42.5h150v-931z" />
    <glyph glyph-name="guillemotright" unicode="&#xbb;" horiz-adv-x="441" 
d="M414 268l-191 -192v89l103 103l-103 102v89zM231 268l-191 -192v89l103 103l-103 102v89z" />
    <glyph glyph-name="divide" unicode="&#xf7;" 
d="M238 451c0 -16.667 -5.66699 -30.666 -17 -41.999s-25 -17 -41 -17c-15.333 0 -28.666 5.66699 -39.999 17s-17 24.666 -17 39.999c0 16 5.66699 29.667 17 41s24.666 17 39.999 17c16 0 29.667 -5.5 41 -16.5s17 -24.167 17 -39.5zM334 236.001h-306v67h306v-67z
M238 91.001c0 -16.667 -5.66699 -30.666 -17 -41.999s-25 -17 -41 -17c-15.333 0 -28.666 5.66699 -39.999 17s-17 25 -17 41c0 15.333 5.66699 28.666 17 39.999s24.666 17 39.999 17c16 0 29.667 -5.5 41 -16.5s17 -24.167 17 -39.5z" />
    <glyph glyph-name="florin" unicode="&#x192;" horiz-adv-x="314" 
d="M298 651l-27.999 -0.000976562c-22.667 0 -38.834 -5.5 -48.501 -16.5s-16.167 -29.167 -19.5 -54.5l-24 -195h86v-50h-92l-69 -556h-69l69 556h-78v50h84l24 197c5.33301 42.667 18.5 75.334 39.5 98.001s52.167 34 93.5 34h32v-63z" />
    <glyph glyph-name="Delta" unicode="&#x394;" horiz-adv-x="603" 
d="M595 0h-587l262 712h63zM494 67l-192 535l-193 -535h385z" />
    <glyph glyph-name="mu" unicode="&#x3bc;" horiz-adv-x="378" 
d="M325 0h-70v47c-17.333 -32.667 -45.333 -49 -84 -49c-18 0 -35.333 5.66699 -52 17v-236h-68v712h69v-352c0 -28 5 -48 15 -60s26 -18 48 -18c48 0 72 26.333 72 79v351h70v-491z" />
    <glyph glyph-name="afii10023" unicode="&#x401;" horiz-adv-x="388" 
d="M331 807c0 -12.667 -4.33203 -23.502 -12.999 -32.502s-19 -13.5 -31 -13.5c-12.667 0 -23.334 4.33301 -32.001 13s-13 19.334 -13 32.001s4.33301 23.334 13 32.001s19 13 31 13s22.5 -4.33301 31.5 -13s13.5 -19 13.5 -31zM194.001 806.998
c0 -12.667 -4.49902 -23.502 -13.499 -32.502s-19.5 -13.5 -31.5 -13.5c-12.667 0 -23.334 4.33301 -32.001 13s-13 19.334 -13 32.001s4.33301 23.334 13 32.001s19 13 31 13s22.667 -4.33301 32 -13s14 -19 14 -31zM361.002 -0.00390625h-301v712h299v-67h-225v-252h187
v-67h-187v-259h227v-67z" />
    <glyph glyph-name="afii10051" unicode="&#x402;" horiz-adv-x="505" 
d="M454 -2c0 -37.333 -9.99805 -67.501 -29.998 -90.501s-48.333 -34.5 -85 -34.5h-23v66h14c33.333 0 50 20.667 50 62v244c0 48.667 -8.33301 83.334 -25 104.001s-45.334 31 -86.001 31c-24.667 0 -51 -4.33301 -79 -13v-367h-73v645h-103v67h337v-67h-161v-215
c28.667 10.667 59.667 16 93 16c55.333 0 97.666 -16.167 126.999 -48.5s44 -80.5 44 -144.5v-255z" />
    <glyph glyph-name="afii10052" unicode="&#x403;" horiz-adv-x="382" 
d="M296 876l-97 -136h-54l76 136h75zM358 645h-224v-645h-74v712h298v-67z" />
    <glyph glyph-name="afii10053" unicode="&#x404;" horiz-adv-x="423" 
d="M389 195c-2.66699 -134 -58.667 -201.001 -168 -201.001c-114 0 -171 68.667 -171 206v312c0 75.333 16 128.5 48 159.5s73 46.5 123 46.5c108.667 0 164.667 -64.667 168 -194h-75c-1.33301 43.333 -8.5 75.5 -21.5 96.5s-36.833 31.5 -71.5 31.5
c-31.333 0 -55.5 -10.167 -72.5 -30.5s-25.5 -59.5 -25.5 -117.5v-111h162v-66h-162v-118c0 -58.667 8.66699 -98.167 26 -118.5s41.333 -30.5 72 -30.5c32 0 55.5 10.333 70.5 31s22.833 55.334 23.5 104.001h74z" />
    <glyph glyph-name="afii10054" unicode="&#x405;" horiz-adv-x="400" 
d="M366 191c0 -69.333 -14.498 -119.501 -43.498 -150.501s-71.833 -46.5 -128.5 -46.5c-51.333 0 -91 14.5 -119 43.5s-43 70.833 -45 125.5h72c2.66699 -36.667 11.5 -62.667 26.5 -78s37.167 -23 66.5 -23c34.667 0 59.667 9.83301 75 29.5s23 51.834 23 96.501
c0 47.333 -7.66699 81.333 -23 102c-10.667 13.333 -30.667 25.333 -60 36l-37 13c-26.667 10 -46.834 19.167 -60.501 27.5s-26.167 19.833 -37.5 34.5c-22.667 28.667 -34 74 -34 136c0 120.667 53.667 181 161 181c48.667 0 86.167 -12.333 112.5 -37
s41.166 -66 44.499 -124h-73c-1.33301 34 -8.5 58.333 -21.5 73s-34.167 22 -63.5 22c-30.667 0 -53 -8.83301 -67 -26.5s-21 -46.5 -21 -86.5c0 -42.667 6.33301 -72 19 -88c10.667 -14.667 31.334 -27.334 62.001 -38.001l35 -12c45.333 -15.333 77.666 -34 96.999 -56
c26.667 -31.333 40 -82.666 40 -153.999z" />
    <glyph glyph-name="afii10055" unicode="&#x406;" horiz-adv-x="214" 
d="M144 0h-74v712h74v-712z" />
    <glyph glyph-name="afii10056" unicode="&#x407;" horiz-adv-x="214" 
d="M221 807c0 -12.667 -4.33203 -23.502 -12.999 -32.502s-19 -13.5 -31 -13.5c-12.667 0 -23.334 4.33301 -32.001 13s-13 19.334 -13 32.001s4.33301 23.334 13 32.001s19 13 31 13s22.5 -4.33301 31.5 -13s13.5 -19 13.5 -31zM84.001 806.998
c0 -12.667 -4.49902 -23.502 -13.499 -32.502s-19.5 -13.5 -31.5 -13.5c-12.667 0 -23.334 4.33301 -32.001 13s-13 19.334 -13 32.001s4.33301 23.334 13 32.001s19 13 31 13s22.667 -4.33301 32 -13s14 -19 14 -31zM144.002 -0.00390625h-74v712h74v-712z" />
    <glyph glyph-name="afii10057" unicode="&#x408;" horiz-adv-x="377" 
d="M313 199c0 -136.667 -50.667 -205 -152 -205c-62 0 -110 27.667 -144 83l59 40c24.667 -37.333 52.667 -56 84 -56c28.667 0 49 11 61 33s18 60.667 18 116v502h74v-513z" />
    <glyph glyph-name="afii10058" unicode="&#x409;" horiz-adv-x="712" 
d="M682 195c0 -130 -59 -195.001 -177 -195.001h-160v645h-148l-9 -394c-4 -167.333 -62 -251 -174 -251h-22v68h4c41.333 0 71 17.333 89 52s27.667 85.334 29 152.001l10 440h294v-304h87c118 0 177 -65 177 -195v-18zM608 201.999l0.00195312 4.99805
c0 48.667 -8.33301 83.334 -25 104.001s-45.334 31 -86.001 31h-79v-275h79c41.333 0 70.166 10.333 86.499 31s24.5 55.334 24.5 104.001z" />
    <glyph glyph-name="afii10059" unicode="&#x40a;" horiz-adv-x="706" 
d="M676 195c0 -130 -59 -195 -177 -195h-160v341h-197v-341h-74v712h74v-304h197v304h74v-304h86c118 0 177 -65 177 -195v-18zM603 202v4.99805c0 48.667 -8.33301 83.334 -25 104.001s-45.667 31 -87 31h-78v-275h78c42 0 71.167 10.333 87.5 31s24.5 55.334 24.5 104.001
z" />
    <glyph glyph-name="afii10060" unicode="&#x40b;" horiz-adv-x="505" 
d="M454 0l-73.998 -0.000976562v245c0 48.667 -8.33301 83.334 -25 104.001s-45.334 31 -86.001 31c-24.667 0 -51 -4.33301 -79 -13v-367h-73v645h-103v67h337v-67h-161v-215c28.667 10.667 59.667 16 93 16c55.333 0 97.666 -16.167 126.999 -48.5s44 -80.5 44 -144.5
v-253z" />
    <glyph glyph-name="afii10061" unicode="&#x40c;" horiz-adv-x="440" 
d="M317 876l-97 -136h-54l77 136h74zM432 0h-79l-146 348l-65 -116v-232h-74v712h74v-358l195 358h75l-157 -285z" />
    <glyph glyph-name="afii10062" unicode="&#x40e;" horiz-adv-x="398" 
d="M326 870c-4 -37.333 -17.6641 -66.5 -40.9971 -87.5s-53.333 -31.5 -90 -31.5s-66.334 10.167 -89.001 30.5s-36.334 49.833 -41.001 88.5h55c6.66699 -44.667 32 -67 76 -67c23.333 0 41.166 6.33301 53.499 19s19.5 28.667 21.5 48h55zM394.003 712l-183.001 -610.999
c-9.33301 -31.333 -20.666 -54.333 -33.999 -69c-19.333 -21.333 -49.333 -32 -90 -32h-39v67h37c18 0 31 4 39 12s15.667 23.667 23 47l23 77l-166 509h74l105 -324c0 -0.666992 1.33301 -5.83398 4 -15.501l9 -34l8 -31.5l114 405h76z" />
    <glyph glyph-name="afii10145" unicode="&#x40f;" horiz-adv-x="481" 
d="M413 0h-139v-161h-68v161h-138v712h74v-645h197v645h74v-712z" />
    <glyph glyph-name="afii10017" unicode="&#x410;" horiz-adv-x="418" 
d="M408 0h-73l-34 150h-185l-33 -150h-72l165 712h64zM286 213l-16 73l-34 147l-16 73l-13 71l-13 -71l-64 -293h156z" />
    <glyph glyph-name="afii10018" unicode="&#x411;" horiz-adv-x="448" 
d="M411 195c0 -130 -59 -195 -177 -195h-166v712h310v-67h-236v-226h92c118 0 177 -65 177 -195v-29zM337 202l0.00195312 14.998c0 48.667 -8.33301 83.334 -25 104.001s-45.334 31 -86.001 31h-84v-285h84c41.333 0 70.166 10.333 86.499 31s24.5 55.334 24.5 104.001z
" />
    <glyph glyph-name="afii10019" unicode="&#x412;" horiz-adv-x="448" 
d="M411 188c0 -61.333 -15.833 -108.002 -47.5 -140.002s-78.167 -48 -139.5 -48h-156v712h151c62.667 0 109 -15 139 -45s45 -75.333 45 -136v-19c0 -36.667 -7.33301 -68 -22 -94s-35 -43.333 -61 -52c26.667 -7.33301 48.5 -25.166 65.5 -53.499
s25.5 -63.166 25.5 -104.499v-20zM329 520.998c0 45.333 -8.5 77.5 -25.5 96.5s-47.167 28.5 -90.5 28.5h-71v-249h74c44 0 73.833 10 89.5 30s23.5 51.333 23.5 94zM338 198.998c0 44 -8.49902 77.167 -25.499 99.5s-48.5 33.5 -94.5 33.5h-76v-266h76
c45.333 0 76.666 11.167 93.999 33.5s26 55.5 26 99.5z" />
    <glyph glyph-name="afii10020" unicode="&#x413;" horiz-adv-x="382" 
d="M358 645h-224v-645h-74v712h298v-67z" />
    <glyph glyph-name="afii10021" unicode="&#x414;" horiz-adv-x="499" 
d="M486 -161h-68v161h-342v-161h-69v228h46c32 76 53.167 151.167 63.5 225.5s15.5 183.5 15.5 327.5v92h290v-645h64v-228zM349 67v578h-146v-97c0 -126.667 -4.83301 -219.5 -14.5 -278.5s-29.167 -126.5 -58.5 -202.5h219z" />
    <glyph glyph-name="afii10022" unicode="&#x415;" horiz-adv-x="388" 
d="M361 0h-301v712h299v-66h-225v-253h187v-66h-187v-261h227v-66z" />
    <glyph glyph-name="afii10024" unicode="&#x416;" horiz-adv-x="646" 
d="M639 0h-76l-142 344l-61 -112v-232h-73v232l-61 112l-143 -344h-76l173 421l-153 291h75l185 -351v351h73v-355l185 355h75l-154 -291z" />
    <glyph glyph-name="afii10025" unicode="&#x417;" horiz-adv-x="403" 
d="M366 188c0 -69.333 -14.667 -119.002 -44 -149.002s-72 -45 -128 -45c-51.333 0 -91.5 15.167 -120.5 45.5s-43.5 71.5 -43.5 123.5v21h72v-16c0 -71.333 31 -107 93 -107c34.667 0 59.667 10 75 30s23 53 23 99v26c0 40.667 -7.33301 70.334 -22 89.001s-39 28 -73 28
h-44v63h44c59.333 0 89 37 89 111v31c0 40.667 -7.16699 70 -21.5 88s-36.833 27 -67.5 27c-56.667 0 -85 -33 -85 -99v-18h-72v21c0 54.667 14 95.167 42 121.5s66 39.5 114 39.5c108 0 162 -59.667 162 -179v-37c0 -71.333 -27 -116.333 -81 -135
c58.667 -15.333 88 -63.666 88 -144.999v-34z" />
    <glyph glyph-name="afii10026" unicode="&#x418;" horiz-adv-x="489" 
d="M420 0h-72v489c0 2 0.666992 14 2 36s2 33.667 2 35l-16 -43l-199 -517h-69v712h72v-487c0 -40 -1 -65 -3 -75l16 48l199 514h68v-712z" />
    <glyph glyph-name="afii10027" unicode="&#x419;" horiz-adv-x="489" 
d="M384 870c-4 -37.333 -17.666 -66.5 -40.999 -87.5s-53.333 -31.5 -90 -31.5s-66.167 10.167 -88.5 30.5s-35.833 49.833 -40.5 88.5h55c2 -19.333 9.33301 -35.333 22 -48s30.667 -19 54 -19s41.166 6.33301 53.499 19s19.5 28.667 21.5 48h54zM420.001 0h-72v489
c0 2 0.666992 14 2 36s2 33.667 2 35l-16 -43l-199 -517h-69v712h72v-487c0 -40 -1 -65 -3 -75l16 48l199 514h68v-712z" />
    <glyph glyph-name="afii10028" unicode="&#x41a;" horiz-adv-x="440" 
d="M432 0h-79l-146 348l-65 -116v-232h-74v712h74v-358l195 358h75l-157 -285z" />
    <glyph glyph-name="afii10029" unicode="&#x41b;" horiz-adv-x="487" 
d="M418 0l-73 -0.000976562v645h-147l-10 -394c-4 -167.333 -62 -251 -174 -251h-22v68h4c41.333 0 71 17.333 89 52s27.667 85.334 29 152.001l11 440h293v-712z" />
    <glyph glyph-name="afii10030" unicode="&#x41c;" horiz-adv-x="571" 
d="M503 0h-70v444l2 83l-15 -61l-106 -351h-54l-109 351l-15 61l2 -83v-444h-70v712h72l147 -491l144 491h72v-712z" />
    <glyph glyph-name="afii10031" unicode="&#x41d;" horiz-adv-x="481" 
d="M413 0h-74v326h-197v-326h-74v712h74v-319h197v319h74v-712z" />
    <glyph glyph-name="afii10032" unicode="&#x41e;" horiz-adv-x="443" 
d="M393 200c0 -137.333 -57 -206 -171 -206c-114.667 0 -172 68.667 -172 206v312c0 137.333 57.333 206 172 206c114 0 171 -68.667 171 -206v-312zM320 209v295c0 58 -8.5 97 -25.5 117s-41.167 30 -72.5 30s-55.5 -10 -72.5 -30s-25.5 -59 -25.5 -117v-295
c0 -58.667 8.5 -98 25.5 -118s41.167 -30 72.5 -30s55.5 10 72.5 30s25.5 59.333 25.5 118z" />
    <glyph glyph-name="afii10033" unicode="&#x41f;" horiz-adv-x="481" 
d="M413 0h-74v645h-197v-645h-74v712h345v-712z" />
    <glyph glyph-name="afii10034" unicode="&#x420;" horiz-adv-x="436" 
d="M406 488c0 -130 -59.333 -195 -178 -195h-86v-293h-74v712h160c118.667 0 178 -65 178 -195v-29zM332 494v16.998c0 48.667 -8.16699 83.334 -24.5 104.001s-45.5 31 -87.5 31h-78v-287h78c41.333 0 70.333 10.333 87 31s25 55.334 25 104.001z" />
    <glyph glyph-name="afii10035" unicode="&#x421;" horiz-adv-x="423" 
d="M388 196c-2 -134.667 -57.6689 -201.999 -167.002 -201.999c-114 0 -171 68.667 -171 206v312c0 75.333 16 128.5 48 159.5s73 46.5 123 46.5c108.667 0 164.334 -65 167.001 -195h-75c-1.33301 44 -8.5 76.333 -21.5 97s-36.5 31 -70.5 31
c-30.667 0 -54.5 -10 -71.5 -30s-25.5 -59 -25.5 -117v-295c0 -58.667 8.5 -98 25.5 -118s40.833 -30 71.5 -30c32 0 55.333 10.167 70 30.5s22.334 55.166 23.001 104.499h74z" />
    <glyph glyph-name="afii10036" unicode="&#x422;" horiz-adv-x="366" 
d="M351 645h-132v-645h-73v645h-132v67h337v-67z" />
    <glyph glyph-name="afii10037" unicode="&#x423;" horiz-adv-x="398" 
d="M394 712l-183.001 -610.999c-9.33301 -31.333 -20.666 -54.333 -33.999 -69c-19.333 -21.333 -49.333 -32 -90 -32h-39v67h37c18 0 31 4 39 12s15.667 23.667 23 47l23 77l-166 509h74l105 -324c0 -0.666992 1.33301 -5.83398 4 -15.501l9 -34l8 -31.5l114 405h76z" />
    <glyph glyph-name="afii10038" unicode="&#x424;" horiz-adv-x="571" 
d="M528 273c0 -137.333 -58 -206 -174 -206h-31v-67h-74v67h-32c-115.333 0 -173 68.667 -173 206v171c0 136.667 57.667 205 173 205h32v63h74v-63h31c116 0 174 -68.333 174 -205v-171zM454 282v152c0 58 -8.83301 97 -26.5 117s-42.5 30 -74.5 30h-31v-446h31
c31.333 0 56 10 74 30s27 59 27 117zM250 135v446h-32c-31.333 0 -56 -10 -74 -30s-27 -59 -27 -117v-152c0 -58 9 -97 27 -117s43 -30 75 -30h31z" />
    <glyph glyph-name="afii10039" unicode="&#x425;" horiz-adv-x="386" 
d="M383 0h-78l-97 243l-17 52l-17 -52l-95 -243h-76l151 369l-140 343h78l83 -211l19 -58l19 58l83 211h75l-140 -343z" />
    <glyph glyph-name="afii10040" unicode="&#x426;" horiz-adv-x="492" 
d="M477 -161h-69v161h-340v712h74v-645h197v645h74v-645h64v-228z" />
    <glyph glyph-name="afii10041" unicode="&#x427;" horiz-adv-x="452" 
d="M383 0l-73 0.000976562v299c-24.667 -10.667 -55.334 -16 -92.001 -16c-56 0 -98.667 16 -128 48s-44 80 -44 144v237h74v-229c0 -48.667 8.33301 -83.334 25 -104.001s45.334 -31 86.001 -31c24.667 0 51 4.33301 79 13v351h73v-712z" />
    <glyph glyph-name="afii10042" unicode="&#x428;" horiz-adv-x="694" 
d="M626 0h-558v712h74v-645h168v645h74v-645h168v645h74v-712z" />
    <glyph glyph-name="afii10043" unicode="&#x429;" horiz-adv-x="705" 
d="M690 -161h-69v161h-553v712h74v-645h168v645h74v-645h168v645h74v-645h64v-228z" />
    <glyph glyph-name="afii10044" unicode="&#x42a;" horiz-adv-x="508" 
d="M478 195c0 -130 -59 -195 -177 -195h-160v645h-127v67h201v-292h86c118 0 177 -65 177 -195v-30zM405 202v16.998c0 48.667 -8.33301 83.334 -25 104.001s-45.667 31 -87 31h-78v-287h78c42 0 71.167 10.333 87.5 31s24.5 55.334 24.5 104.001z" />
    <glyph glyph-name="afii10045" unicode="&#x42b;" horiz-adv-x="622" 
d="M554 0h-74v712h74v-712zM406 195c0 -130 -59.333 -195 -178 -195h-160v712h74v-292h86c118.667 0 178 -65 178 -195v-30zM332 202v16.998c0 48.667 -8.33301 83.334 -25 104.001s-45.667 31 -87 31h-78v-287h78c42 0 71.167 10.333 87.5 31s24.5 55.334 24.5 104.001z
" />
    <glyph glyph-name="afii10046" unicode="&#x42c;" horiz-adv-x="435" 
d="M406 195c0 -130 -59.333 -195 -178 -195h-160v712h74v-292h86c118.667 0 178 -65 178 -195v-30zM332 202v16.998c0 48.667 -8.33301 83.334 -25 104.001s-45.667 31 -87 31h-78v-287h78c42 0 71.167 10.333 87.5 31s24.5 55.334 24.5 104.001z" />
    <glyph glyph-name="afii10047" unicode="&#x42d;" horiz-adv-x="423" 
d="M373 200c0 -137.333 -57 -205.999 -171 -205.999c-108.667 0 -164.334 67 -167.001 201h73c1.33301 -48.667 9.33301 -83.334 24 -104.001s38 -31 70 -31c30.667 0 54.667 10.167 72 30.5s26 59.833 26 118.5v118h-161v66h161v111c0 58 -8.5 97.167 -25.5 117.5
s-41.167 30.5 -72.5 30.5c-34.667 0 -58.5 -10.5 -71.5 -31.5s-20.167 -53.167 -21.5 -96.5h-74c2.66699 129.333 58.334 194 167.001 194c50 0 91 -15.5 123 -46.5s48 -84.167 48 -159.5v-312z" />
    <glyph glyph-name="afii10048" unicode="&#x42e;" horiz-adv-x="617" 
d="M567 200c0 -137.333 -57 -206 -171 -206c-114.667 0 -172 68.667 -172 206v126h-82v-326h-74v712h74v-319h82v119c0 137.333 57.333 206 172 206c114 0 171 -68.667 171 -206v-312zM494 209v295c0 58 -8.5 97 -25.5 117s-41.167 30 -72.5 30s-55.5 -10 -72.5 -30
s-25.5 -59 -25.5 -117v-295c0 -58.667 8.5 -98 25.5 -118s41.167 -30 72.5 -30s55.5 10 72.5 30s25.5 59.333 25.5 118z" />
    <glyph glyph-name="afii10049" unicode="&#x42f;" horiz-adv-x="449" 
d="M381 0h-74v299h-80l-123 -299h-78l128 309c-73.333 24 -110 83.667 -110 179v39c0 58 13.833 103.333 41.5 136s69.5 49 125.5 49h170v-712zM307 363l-0.000976562 283h-87c-35.333 0 -61.166 -10 -77.499 -30s-24.5 -52 -24.5 -96v-31c0 -84 34 -126 102 -126h87z" />
    <glyph glyph-name="afii10065" unicode="&#x430;" horiz-adv-x="363" 
d="M312 0l-68.999 0.000976562v48c-18.667 -34 -48.667 -51 -90 -51c-42 0 -72.667 13 -92 39c-18.667 25.333 -28 59.666 -28 102.999c0 46 12.167 81.167 36.5 105.5s57.166 36.5 98.499 36.5h75v79c0 27.333 -5 46.333 -15 57s-25.333 16 -46 16
c-42 0 -65 -23.667 -69 -71h-67c2 44 16 77.333 42 100s58 34 96 34c40.667 0 72.167 -10.667 94.5 -32s33.5 -53 33.5 -95v-369zM243.001 171.001v56h-68c-50 0 -75 -28.667 -75 -86s21.667 -86 65 -86c26 0 46.667 10.667 62 32c10.667 16 16 44 16 84z" />
    <glyph glyph-name="afii10066" unicode="&#x431;" horiz-adv-x="359" 
d="M323 162c0 -56.667 -12.498 -98.8291 -37.498 -126.496s-59.833 -41.5 -104.5 -41.5c-44 0 -78.5 13.833 -103.5 41.5s-37.5 69.834 -37.5 126.501v201c0 56 0.666992 98.167 2 126.5s5.66602 58.166 12.999 89.499s18.666 56.666 33.999 75.999
c7.33301 8.66699 15.833 16.334 25.5 23.001s18.667 11.667 27 15s19.5 6.33301 33.5 9s24.5 4.16699 31.5 4.5s18.667 1 35 2s26.833 1.5 31.5 1.5l32 2v-61l-16 -1c-4.66699 0 -15.167 -0.333008 -31.5 -1s-29 -1.33398 -38 -2.00098s-20.167 -2.33398 -33.5 -5.00098
s-24.833 -6.83398 -34.5 -12.501s-18.167 -12.834 -25.5 -21.501c-21.333 -26 -32 -82 -32 -168h2c5.33301 13.333 16.333 24.833 33 34.5s36.667 14.5 60 14.5c40.667 0 73.167 -14 97.5 -42s36.5 -70 36.5 -126v-159zM254.002 166.005v153c0 40 -6 68.167 -18 84.5
s-30.333 24.5 -55 24.5c-24 0 -42 -8.16699 -54 -24.5s-18 -44.5 -18 -84.5v-153c0 -40.667 6 -69.167 18 -85.5s30 -24.5 54 -24.5c24.667 0 43 8.16699 55 24.5s18 44.833 18 85.5z" />
    <glyph glyph-name="afii10067" unicode="&#x432;" horiz-adv-x="359" 
d="M323 131c0 -87.333 -43 -131 -129 -131h-141v491h137c84.667 0 127 -41.667 127 -125v-14c0 -52.667 -19 -86 -57 -100c20 -6 35.5 -18.5 46.5 -37.5s16.5 -41.833 16.5 -68.5v-15zM248 356c0 28.667 -5.33301 48.667 -16 60s-30 17 -58 17h-52v-153h54
c28 0 47 5.83301 57 17.5s15 31.167 15 58.5zM254 140c0 28 -5.5 48.667 -16.5 62s-30.833 20 -59.5 20h-56v-164h56c28.667 0 48.5 6.66699 59.5 20s16.5 34 16.5 62z" />
    <glyph glyph-name="afii10068" unicode="&#x433;" horiz-adv-x="294" 
d="M286 430h-163v-430h-70v491h233v-61z" />
    <glyph glyph-name="afii10069" unicode="&#x434;" horiz-adv-x="389" 
d="M383 -134h-64v134h-252v-134h-64v195h42c20.667 49.333 34.167 98.5 40.5 147.5s9.5 122.167 9.5 219.5v63h234v-430h54v-195zM260 61v369h-97v-59c0 -82 -3 -142.333 -9 -181s-18.333 -81.667 -37 -129h143z" />
    <glyph glyph-name="afii10070" unicode="&#x435;" horiz-adv-x="355" 
d="M317 224h-211.001v-52c0 -43.333 6.16699 -73.666 18.5 -90.999s31.166 -26 56.499 -26c22.667 0 39.334 5.83301 50.001 17.5s16.334 31.167 17.001 58.5h67c-2 -43.333 -14.167 -77 -36.5 -101s-54.833 -36 -97.5 -36c-44.667 0 -79.667 14.167 -105 42.5
s-38 72.166 -38 131.499v154c0 58.667 12.5 102.167 37.5 130.5s59.5 42.5 103.5 42.5c92 0 138 -56.333 138 -169v-102zM248.999 279v46.001c0 40.667 -5.5 69.167 -16.5 85.5s-28.833 24.5 -53.5 24.5s-43 -8.33301 -55 -25s-18 -46.334 -18 -89.001v-42h143z" />
    <glyph glyph-name="afii10072" unicode="&#x436;" horiz-adv-x="525" 
d="M512 0h-75l-104 223l-37 -64v-159h-67v159l-37 64l-104 -223h-74l132 289l-115 202h73l125 -221v221h67v-221l125 221h73l-115 -202z" />
    <glyph glyph-name="afii10073" unicode="&#x437;" horiz-adv-x="329" 
d="M290 137c0 -95.333 -43.3311 -143.001 -129.998 -143.001c-52.667 0 -89.667 19 -111 57c-12 20.667 -18 48 -18 82h65c0 -23.333 5.16699 -42.166 15.5 -56.499s26.5 -21.5 48.5 -21.5c23.333 0 39.666 6.83301 48.999 20.5s14 34.834 14 63.501v14
c0 24.667 -4.83301 42.5 -14.5 53.5s-25.834 16.5 -48.501 16.5h-37v56h37c39.333 0 59 23 59 69v17c0 26 -4.33301 44.333 -13 55s-23.667 16 -45 16c-23.333 0 -39.333 -7 -48 -21c-7.33301 -10.667 -11 -27.334 -11 -50.001h-65c0 41.333 9.33301 72 28 92
c10.667 11.333 25 20.666 43 27.999s35.333 11 52 11c42.667 0 74.167 -10.5 94.5 -31.5s30.5 -54.5 30.5 -100.5v-24c0 -43.333 -18 -72 -54 -86c39.333 -13.333 59 -45.666 59 -96.999v-20z" />
    <glyph glyph-name="afii10074" unicode="&#x438;" horiz-adv-x="388" 
d="M335 0h-70v265c0 36 1.33301 65.333 4 88l-150 -353h-66v491h70v-271c0 -16 -1 -44 -3 -84l149 355h66v-491z" />
    <glyph glyph-name="afii10075" unicode="&#x439;" horiz-adv-x="388" 
d="M317 676c-4.66699 -37.333 -18 -65.833 -40 -85.5s-49.667 -29.5 -83 -29.5c-34 0 -61.667 9.66699 -83 29s-34.333 48 -39 86h55c6 -42 28.667 -63 68 -63c19.333 0 34.833 6 46.5 18s18.5 27 20.5 45h55zM335 0h-70v265c0 36 1.33301 65.333 4 88l-150 -353h-66v491h70
v-271c0 -16 -1 -44 -3 -84l149 355h66v-491z" />
    <glyph glyph-name="afii10076" unicode="&#x43a;" horiz-adv-x="359" 
d="M347 0h-75l-110 221l-40 -66v-155h-69v491h69v-223l135 223h72l-122 -204z" />
    <glyph glyph-name="afii10077" unicode="&#x43b;" horiz-adv-x="383" 
d="M329 0h-68.999v433h-109l-6 -258c-2.66699 -116.667 -43.334 -175 -122.001 -175h-23v60h9c25.333 0 43 10.5 53 31.5s15.667 53.5 17 97.5l7 302h243v-491z" />
    <glyph glyph-name="afii10078" unicode="&#x43c;" horiz-adv-x="473" 
d="M420 0h-70v256c0 1.33301 0.5 14 1.5 38s1.5 36.667 1.5 38h-3l-89 -254h-48l-90 254h-3c2 -6 3 -31.333 3 -76v-256h-70v491h75l110 -325l106 325h76v-491z" />
    <glyph glyph-name="afii10079" unicode="&#x43d;" horiz-adv-x="381" 
d="M327 0h-69v217h-135v-217h-70v491h70v-212h135v212h69v-491z" />
    <glyph glyph-name="afii10080" unicode="&#x43e;" horiz-adv-x="359" 
d="M321 162c0 -56.667 -12.5 -98.834 -37.5 -126.501s-59.833 -41.5 -104.5 -41.5c-44 0 -78.5 13.833 -103.5 41.5s-37.5 69.834 -37.5 126.501v166c0 56 12.5 98 37.5 126s59.5 42 103.5 42s78.667 -14 104 -42s38 -70 38 -126v-166zM252 166v158c0 40 -6 68.167 -18 84.5
s-30.333 24.5 -55 24.5c-24 0 -42 -8.16699 -54 -24.5s-18 -44.5 -18 -84.5v-158c0 -40.667 6 -69.167 18 -85.5s30 -24.5 54 -24.5c24.667 0 43 8.16699 55 24.5s18 44.833 18 85.5z" />
    <glyph glyph-name="afii10081" unicode="&#x43f;" horiz-adv-x="381" 
d="M327 0h-69v430h-135v-430h-70v491h274v-491z" />
    <glyph glyph-name="afii10082" unicode="&#x440;" horiz-adv-x="377" 
d="M339 159c0 -39.333 -6.33398 -73.333 -19.001 -102c-18.667 -42 -53 -63 -103 -63c-44 0 -75.333 16.333 -94 49v-264h-70v712h70v-48c20 34.667 52 52 96 52c48.667 0 82.334 -21.333 101.001 -64c12.667 -29.333 19 -62.333 19 -99v-173zM269.999 166v157
c0 40 -6.16699 68.333 -18.5 85s-30.166 25 -53.499 25c-50.667 0 -76 -36.667 -76 -110v-157c0 -73.333 25.333 -110 76 -110c23.333 0 41.166 8.33301 53.499 25s18.5 45 18.5 85z" />
    <glyph glyph-name="afii10083" unicode="&#x441;" horiz-adv-x="339" 
d="M312 140c-1.33301 -45.333 -13.6689 -81 -37.002 -107s-56.666 -39 -99.999 -39c-41.333 0 -74.5 14 -99.5 42s-37.5 70.333 -37.5 127v163c0 56.667 12.5 99 37.5 127s58.167 42 99.5 42c88 0 133.333 -48 136 -144h-68c-2 29.333 -8 50.333 -18 63s-26.667 19 -50 19
c-22 0 -38.833 -8.33301 -50.5 -25s-17.5 -45 -17.5 -85v-156c0 -40.667 5.83301 -69.334 17.5 -86.001s28.5 -25 50.5 -25c22.667 0 39.334 6.83301 50.001 20.5s16.667 34.834 18 63.501h69z" />
    <glyph glyph-name="afii10084" unicode="&#x442;" horiz-adv-x="299" 
d="M291 430h-107v-430h-69v430h-107v61h283v-61z" />
    <glyph glyph-name="afii10085" unicode="&#x443;" horiz-adv-x="306" 
d="M309 491l-148.998 -602c-8 -32 -18 -54.667 -30 -68c-16.667 -21.333 -45.334 -32 -86.001 -32h-17v64h14c17.333 0 29.666 4.16699 36.999 12.5s14 24.833 20 49.5l25 101l-118 475h71l69 -308l12 -68l12 68l70 308h70z" />
    <glyph glyph-name="afii10086" unicode="&#x444;" horiz-adv-x="525" 
d="M489 207c0 -130.667 -64 -201.334 -192 -212.001v-216h-69v215c-128 10.667 -192 83.667 -192 219v71c0 130.667 64 201.334 192 212.001v216h69v-216c128 -10 192 -79.333 192 -208v-81zM420 208l0.00195312 78.001c0 49.333 -10.333 85.666 -31 108.999
s-51.334 37 -92.001 41v-379c39.333 6 69.666 22 90.999 48s32 60.333 32 103zM228.002 57.001l0.00195312 380c-40.667 -4 -71.334 -17.333 -92.001 -40s-31 -59.667 -31 -111v-78c0 -42.667 10.667 -77 32 -103s51.666 -42 90.999 -48z" />
    <glyph glyph-name="afii10087" unicode="&#x445;" horiz-adv-x="322" 
d="M307 0h-71l-62 152l-13 42l-12 -42l-64 -152h-70l110 251l-105 240h70l59 -141l12 -40l13 40l57 141h71l-106 -240z" />
    <glyph glyph-name="afii10088" unicode="&#x446;" horiz-adv-x="392" 
d="M386 -134h-64v134h-269v491h70v-430h135v430h69v-430h59v-195z" />
    <glyph glyph-name="afii10089" unicode="&#x447;" horiz-adv-x="345" 
d="M292 0l-70 -0.000976562v199c-14 -9.33301 -33.667 -14 -59 -14c-84.667 0 -127 46 -127 138v168h69v-159c0 -31.333 5.16699 -53.166 15.5 -65.499s28.5 -18.5 54.5 -18.5c23.333 0 39 3.33301 47 10v233h70v-491z" />
    <glyph glyph-name="afii10090" unicode="&#x448;" horiz-adv-x="536" 
d="M482 0h-429v491h70v-430h110v430h69v-430h111v430h69v-491z" />
    <glyph glyph-name="afii10091" unicode="&#x449;" horiz-adv-x="547" 
d="M541 -134h-64v134h-424v491h70v-430h110v430h69v-430h111v430h69v-430h59v-195z" />
    <glyph glyph-name="afii10092" unicode="&#x44a;" horiz-adv-x="400" 
d="M373 139c0 -92.667 -43.667 -139 -131 -139h-135v430h-99v61h168v-193h66c87.333 0 131 -46.333 131 -139v-20zM303 143v13c0 30.667 -5.33301 52.167 -16 64.5s-28.667 18.5 -54 18.5h-56v-178h56c26 0 44.167 6 54.5 18s15.5 33.333 15.5 64z" />
    <glyph glyph-name="afii10093" unicode="&#x44b;" horiz-adv-x="490" 
d="M436 0h-69v491h69v-491zM319 139c0 -92.667 -43.667 -139 -131 -139h-135v491h70v-193h65c87.333 0 131 -46.333 131 -139v-20zM250 143v13c0 30.667 -5.5 52.167 -16.5 64.5s-29.167 18.5 -54.5 18.5h-56v-178h56c26 0 44.333 6 55 18s16 33.333 16 64z" />
    <glyph glyph-name="afii10094" unicode="&#x44c;" horiz-adv-x="348" 
d="M319 139c0 -92.667 -43.667 -139 -131 -139h-135v491h70v-193h65c87.333 0 131 -46.333 131 -139v-20zM250 143v13c0 30.667 -5.5 52.167 -16.5 64.5s-29.167 18.5 -54.5 18.5h-56v-178h56c26 0 44.333 6 55 18s16 33.333 16 64z" />
    <glyph glyph-name="afii10095" unicode="&#x44d;" horiz-adv-x="340" 
d="M302 164c0 -57.333 -12.667 -100 -38 -128s-58.666 -42 -99.999 -42c-42.667 0 -75.5 12.667 -98.5 38s-35.5 58.666 -37.5 99.999h69c2 -52 24.667 -78 68 -78c22 0 38.833 8.33301 50.5 25s17.5 45.334 17.5 86.001v56h-120v55h120v49c0 72.667 -22.667 109 -68 109
c-22.667 0 -39.167 -6 -49.5 -18s-16.166 -31 -17.499 -57h-69c2 46 14.667 80.333 38 103s55.666 34 96.999 34s74.666 -14.167 99.999 -42.5s38 -70.833 38 -127.5v-162z" />
    <glyph glyph-name="afii10096" unicode="&#x44e;" horiz-adv-x="509" 
d="M471 162c0 -56.667 -12.5 -98.834 -37.5 -126.501s-59.5 -41.5 -103.5 -41.5c-44.667 0 -79.5 13.833 -104.5 41.5s-37.5 69.834 -37.5 126.501v55h-65v-217h-70v491h70v-212h65v49c0 56 12.667 98 38 126s60 42 104 42s78.5 -14 103.5 -42s37.5 -70 37.5 -126v-166z
M402 166v158c0 40 -6 68.167 -18 84.5s-30 24.5 -54 24.5c-24.667 0 -42.834 -8 -54.501 -24s-17.5 -44.333 -17.5 -85v-158c0 -40.667 5.83301 -69.167 17.5 -85.5s29.834 -24.5 54.501 -24.5c24 0 42 8.16699 54 24.5s18 44.833 18 85.5z" />
    <glyph glyph-name="afii10097" unicode="&#x44f;" horiz-adv-x="364" 
d="M310 0l-70 -0.00195312v199h-57l-84 -199h-73l88 209c-49.333 18.667 -74 60.334 -74 125.001v31c0 38.667 10.667 69.334 32 92.001s52 34 92 34h146v-491zM241 255.998l-0.000976562 177h-67c-23.333 0 -40.166 -6.16699 -50.499 -18.5s-15.5 -32.5 -15.5 -60.5v-21
c0 -51.333 22 -77 66 -77h67z" />
    <glyph glyph-name="afii10071" unicode="&#x451;" horiz-adv-x="355" 
d="M297 619c0 -13.333 -4.33105 -24.501 -12.998 -33.501s-19.334 -13.5 -32.001 -13.5s-23.334 4.5 -32.001 13.5s-13 19.5 -13 31.5c0 12.667 4.33301 23.334 13 32.001s19 13 31 13s22.667 -4.33301 32 -13s14 -18.667 14 -30zM159.002 618.999
c0 -13.333 -4.33203 -24.501 -12.999 -33.501s-19.334 -13.5 -32.001 -13.5s-23.334 4.5 -32.001 13.5s-13 19.5 -13 31.5c0 12.667 4.33301 23.334 13 32.001s19.334 13 32.001 13c12 0 22.5 -4.33301 31.5 -13s13.5 -18.667 13.5 -30zM317.003 223.998h-211.001v-52
c0 -43.333 6.16699 -73.666 18.5 -90.999s31.166 -26 56.499 -26c22.667 0 39.334 5.83301 50.001 17.5s16.334 31.167 17.001 58.5h67c-2 -43.333 -14.167 -77 -36.5 -101s-54.833 -36 -97.5 -36c-44.667 0 -79.667 14.167 -105 42.5s-38 72.166 -38 131.499v154
c0 58.667 12.5 102.167 37.5 130.5s59.5 42.5 103.5 42.5c92 0 138 -56.333 138 -169v-102zM249.002 278.998v46.001c0 40.667 -5.5 69.167 -16.5 85.5s-28.833 24.5 -53.5 24.5s-43 -8.33301 -55 -25s-18 -46.334 -18 -89.001v-42h143z" />
    <glyph glyph-name="afii10099" unicode="&#x452;" horiz-adv-x="378" 
d="M327 1c0 -37.333 -8.99805 -66.668 -26.998 -88.001s-45.333 -32 -82 -32h-24v63h16c17.333 0 29.666 4.83301 36.999 14.5s11 24.834 11 45.501v261c0 28 -4.83301 48 -14.5 60s-25.5 18 -47.5 18c-48.667 0 -73 -26.333 -73 -79v-264h-70v482h-36v54h36v176h70v-176
h154v-54h-154v-125c20 34 51 51 93 51c37.333 0 65.166 -11.333 83.499 -34s27.5 -53.667 27.5 -93v-280z" />
    <glyph glyph-name="afii10100" unicode="&#x453;" horiz-adv-x="294" 
d="M250 684l-97 -136h-53l76 136h74zM286 430h-163v-430h-70v491h233v-61z" />
    <glyph glyph-name="afii10101" unicode="&#x454;" horiz-adv-x="340" 
d="M312 132c-2 -41.333 -14.5 -74.666 -37.5 -99.999s-55.833 -38 -98.5 -38c-41.333 0 -74.666 14 -99.999 42s-38 70.667 -38 128v162c0 56.667 12.667 99.167 38 127.5s58.666 42.5 99.999 42.5s73.666 -11.333 96.999 -34s36 -57 38 -103h-69
c-1.33301 26 -7.16602 45 -17.499 57s-26.833 18 -49.5 18c-45.333 0 -68 -36.333 -68 -109v-49h120v-55h-120v-56c0 -40.667 5.83301 -69.334 17.5 -86.001s28.5 -25 50.5 -25c43.333 0 66 26 68 78h69z" />
    <glyph glyph-name="afii10102" unicode="&#x455;" horiz-adv-x="329" 
d="M292 140c0 -97.333 -43.002 -145.999 -129.002 -145.999c-81.333 0 -124.666 44.667 -129.999 134h68c1.33301 -26 6.83301 -44.667 16.5 -56s24.834 -17 45.501 -17c23.333 0 39.666 6.66699 48.999 20s14 34.333 14 63c0 24 -3 41 -9 51s-19 18.333 -39 25l-44 14
c-34.667 11.333 -59 26.666 -73 45.999s-21 49 -21 89c0 44.667 11.333 78 34 100s53 33 91 33c37.333 0 67.166 -10 89.499 -30s33.833 -51 34.5 -93h-66c-1.33301 23.333 -6.66602 39.666 -15.999 48.999s-23.333 14 -42 14c-22 0 -37.333 -5.5 -46 -16.5
s-13 -29.5 -13 -55.5c0 -24 3.16699 -41.167 9.5 -51.5s18.833 -18.166 37.5 -23.499l43 -13c34.667 -10 59.334 -24.5 74.001 -43.5s22 -49.833 22 -92.5z" />
    <glyph glyph-name="afii10103" unicode="&#x456;" horiz-adv-x="191" 
d="M143 671c0 -13.333 -4.66504 -24.832 -13.998 -34.499s-20.333 -14.5 -33 -14.5s-23.834 4.66699 -33.501 14s-14.5 20.333 -14.5 33c0 13.333 4.66699 24.666 14 33.999s20.333 14 33 14c13.333 0 24.666 -4.5 33.999 -13.5s14 -19.833 14 -32.5zM131.002 0.000976562
h-71v491h71v-491z" />
    <glyph glyph-name="afii10104" unicode="&#x457;" horiz-adv-x="191" 
d="M210 673c0 -13.333 -4.33105 -24.501 -12.998 -33.501s-19.334 -13.5 -32.001 -13.5s-23.334 4.5 -32.001 13.5s-13 19.5 -13 31.5c0 12.667 4.33301 23.334 13 32.001s19 13 31 13s22.667 -4.33301 32 -13s14 -18.667 14 -30zM72.002 672.999
c0 -12.667 -4.33301 -23.668 -13 -33.001s-19 -14 -31 -14c-12.667 0 -23.5 4.5 -32.5 13.5s-13.5 19.5 -13.5 31.5c0 12.667 4.5 23.334 13.5 32.001s19.5 13 31.5 13s22.5 -4.33301 31.5 -13s13.5 -18.667 13.5 -30zM131.002 -0.00195312h-71v491h71v-491z" />
    <glyph glyph-name="afii10105" unicode="&#x458;" horiz-adv-x="192" 
d="M146 671c0 -13.333 -4.66895 -24.832 -14.002 -34.499s-20.333 -14.5 -33 -14.5c-13.333 0 -24.666 4.66699 -33.999 14s-14 20.333 -14 33c0 13.333 4.5 24.666 13.5 33.999s20.167 14 33.5 14c12.667 0 23.834 -4.5 33.501 -13.5s14.5 -19.833 14.5 -32.5z
M134.998 -100.999c0 -37.333 -9.16699 -66.501 -27.5 -87.501s-45.833 -31.5 -82.5 -31.5h-24v62h15c18 0 30.667 4.83301 38 14.5s11 24.834 11 45.501v589h70v-592z" />
    <glyph glyph-name="afii10106" unicode="&#x459;" horiz-adv-x="555" 
d="M526 139c0 -92.667 -43.666 -139 -130.999 -139h-135v433h-109l-6 -258c-2.66699 -116.667 -43.334 -175 -122.001 -175h-23v60h9c25.333 0 43 10.5 53 31.5s15.667 53.5 17 97.5l7 302h243v-202h66c87.333 0 131 -46.333 131 -139v-11zM456.001 142v5
c0 30.667 -5.33301 52 -16 64s-28.667 18 -54 18h-57v-169h57c26 0 44.167 6 54.5 18s15.5 33.333 15.5 64z" />
    <glyph glyph-name="afii10107" unicode="&#x45a;" horiz-adv-x="550" 
d="M524 139c0 -92.667 -43.667 -139 -131 -139h-135v229h-135v-229h-70v491h70v-202h135v202h69v-202h66c87.333 0 131 -46.333 131 -139v-11zM454 142v5c0 30.667 -5.33301 52 -16 64s-28.667 18 -54 18h-57v-169h57c26 0 44.167 6 54.5 18s15.5 33.333 15.5 64z" />
    <glyph glyph-name="afii10108" unicode="&#x45b;" horiz-adv-x="378" 
d="M327 0h-68.999v265c0 28 -4.83301 48 -14.5 60s-25.5 18 -47.5 18c-48.667 0 -73 -26.333 -73 -79v-264h-70v482h-36v54h36v176h70v-176h154v-54h-154v-125c20 34 51 51 93 51c37.333 0 65.166 -11.333 83.499 -34s27.5 -53.667 27.5 -93v-281z" />
    <glyph glyph-name="afii10109" unicode="&#x45c;" horiz-adv-x="359" 
d="M271 684l-97 -136h-54l77 136h74zM347 0h-75l-110 221l-40 -66v-155h-69v491h69v-223l135 223h72l-122 -204z" />
    <glyph glyph-name="afii10110" unicode="&#x45e;" horiz-adv-x="306" 
d="M277 676c-4 -37.333 -17.001 -65.833 -39.001 -85.5s-50 -29.5 -84 -29.5c-33.333 0 -60.666 9.5 -81.999 28.5s-34.333 47.833 -39 86.5h55c4.66699 -42 27.334 -63 68.001 -63c19.333 0 34.666 6 45.999 18s18 27 20 45h55zM309.999 491l-149.999 -602
c-8 -31.333 -17.667 -54 -29 -68c-18.667 -21.333 -47.667 -32 -87 -32h-17v65h14c17.333 0 29.666 4 36.999 12s14 24.333 20 49l25 101l-118 475h71l69 -308l12 -68l13 68l69 308h71z" />
    <glyph glyph-name="afii10193" unicode="&#x45f;" horiz-adv-x="381" 
d="M327 0h-104v-134h-64v134h-106v491h70v-430h135v430h69v-491z" />
    <glyph glyph-name="afii10050" unicode="&#x490;" horiz-adv-x="382" 
d="M358 645h-224v-645h-74v712h229v161h69v-228z" />
    <glyph glyph-name="afii10098" unicode="&#x491;" horiz-adv-x="294" 
d="M286 430h-163v-430h-70v491h168v134h65v-195z" />
    <glyph glyph-name="endash" unicode="&#x2013;" horiz-adv-x="500" 
d="M500 237h-500v64h500v-64z" />
    <glyph glyph-name="emdash" unicode="&#x2014;" horiz-adv-x="1000" 
d="M1000 237h-1000v64h1000v-64z" />
    <glyph glyph-name="quoteleft" unicode="&#x2018;" horiz-adv-x="212" 
d="M169 712l-41 -173h-81l68 173h54z" />
    <glyph glyph-name="quoteright" unicode="&#x2019;" horiz-adv-x="212" 
d="M152 712l-68 -173h-55l42 173h81z" />
    <glyph glyph-name="quotesinglbase" unicode="&#x201a;" horiz-adv-x="212" 
d="M169 85l-67 -173h-55l41 173h81z" />
    <glyph glyph-name="quotedblleft" unicode="&#x201c;" horiz-adv-x="356" 
d="M310 712l-41 -173h-82l68 173h55zM168 712l-41 -173h-81l67 173h55z" />
    <glyph glyph-name="quotedblright" unicode="&#x201d;" horiz-adv-x="356" 
d="M292 712l-67 -173h-55l41 173h81zM151 712l-68 -173h-55l42 173h81z" />
    <glyph glyph-name="quotedblbase" unicode="&#x201e;" horiz-adv-x="356" 
d="M310 85l-68 -173h-54l41 173h81zM168 85l-67 -173h-55l41 173h81z" />
    <glyph glyph-name="dagger" unicode="&#x2020;" horiz-adv-x="457" 
d="M409 444h-145v-444h-73v444h-143v65h143v203h73v-203h145v-65z" />
    <glyph glyph-name="daggerdbl" unicode="&#x2021;" horiz-adv-x="457" 
d="M409 -16h-145v-203h-73v203h-143v65h143v395h-143v65h143v203h73v-203h145v-65h-145v-395h145v-65z" />
    <glyph glyph-name="bullet" unicode="&#x2022;" horiz-adv-x="296" 
d="M251 358c0 -28 -10 -52.167 -30 -72.5s-44.333 -30.5 -73 -30.5s-53 10.167 -73 30.5s-30 44.5 -30 72.5c0 28.667 10 53 30 73s44.333 30 73 30s53 -10 73 -30s30 -44.333 30 -73z" />
    <glyph glyph-name="ellipsis" unicode="&#x2026;" horiz-adv-x="611" 
d="M555 47c0 -14.667 -5.16699 -27.168 -15.5 -37.501s-22.5 -15.5 -36.5 -15.5c-14.667 0 -27 5 -37 15s-15 22.333 -15 37c0 14 5 26.167 15 36.5s22.333 15.5 37 15.5c14 0 26.167 -5.16699 36.5 -15.5s15.5 -22.166 15.5 -35.499zM358 46.999
c0 -14.667 -5.16699 -27.168 -15.5 -37.501s-22.5 -15.5 -36.5 -15.5c-14.667 0 -27 5 -37 15s-15 22.333 -15 37c0 14 5 26.167 15 36.5s22.333 15.5 37 15.5c14 0 26.167 -5.16699 36.5 -15.5s15.5 -22.166 15.5 -35.499zM159 46.998c0 -14.667 -5 -27.167 -15 -37.5
s-22.333 -15.5 -37 -15.5c-14 0 -26.167 5 -36.5 15s-15.5 22.333 -15.5 37c0 14 5.16699 26.167 15.5 36.5s22.5 15.5 36.5 15.5s26.167 -5 36.5 -15s15.5 -22 15.5 -36z" />
    <glyph glyph-name="perthousand" unicode="&#x2030;" horiz-adv-x="818" 
d="M784 118c0 -40.667 -8.83301 -71.667 -26.5 -93s-42.834 -32 -75.501 -32s-57.834 10.667 -75.501 32s-26.5 52.333 -26.5 93v126c0 40.667 8.83301 71.667 26.5 93s42.834 32 75.501 32s57.834 -10.667 75.501 -32s26.5 -52.333 26.5 -93v-126zM237 467
c0 -40.667 -8.83301 -71.5 -26.5 -92.5s-42.834 -31.5 -75.501 -31.5s-57.667 10.5 -75 31.5s-26 51.833 -26 92.5v127c0 40.667 8.83301 71.667 26.5 93s42.5 32 74.5 32c32.667 0 57.834 -10.667 75.501 -32s26.5 -52.333 26.5 -93v-127zM428 712l-232 -712h-56l231 712
h57zM536 118c0 -40.667 -8.83301 -71.667 -26.5 -93s-42.834 -32 -75.501 -32s-57.834 10.667 -75.501 32s-26.5 52.333 -26.5 93v126c0 40.667 8.83301 71.667 26.5 93s42.834 32 75.501 32s57.834 -10.667 75.501 -32s26.5 -52.333 26.5 -93v-126zM729 118v126
c0 26 -3.5 44.667 -10.5 56s-19.167 17 -36.5 17s-29.666 -5.66699 -36.999 -17s-11 -30 -11 -56v-126c0 -26 3.66699 -44.667 11 -56s19.666 -17 36.999 -17c16.667 0 28.667 5.83301 36 17.5s11 30.167 11 55.5zM183 468v125c0 26 -3.66699 44.833 -11 56.5
s-19.666 17.5 -36.999 17.5c-16.667 0 -28.667 -5.83301 -36 -17.5s-11 -30.5 -11 -56.5v-125c0 -26 3.66699 -44.667 11 -56s19.333 -17 36 -17c17.333 0 29.666 5.66699 36.999 17s11 30 11 56zM481 118v126c0 26 -3.66699 44.667 -11 56s-19.333 17 -36 17
c-17.333 0 -29.666 -5.66699 -36.999 -17s-11 -30 -11 -56v-126c0 -26 3.66699 -44.667 11 -56s19.666 -17 36.999 -17c31.333 0 47 24.333 47 73z" />
    <glyph glyph-name="guilsinglleft" unicode="&#x2039;" horiz-adv-x="258" 
d="M218 76l-191 192l191 191v-89l-102 -102l102 -103v-89z" />
    <glyph glyph-name="guilsinglright" unicode="&#x203a;" horiz-adv-x="258" 
d="M231 268l-191 -192v89l103 103l-103 102v89z" />
    <glyph glyph-name="afii61352" unicode="&#x2116;" horiz-adv-x="733" 
d="M686 259c0 -40 -8.83301 -70.667 -26.5 -92s-42.834 -32 -75.501 -32c-32 0 -57 10.667 -75 32s-27 52 -27 92v93c0 40.667 8.83301 71.667 26.5 93s42.834 32 75.501 32c68 0 102 -41.667 102 -125v-93zM686 0h-204v61h204v-61zM429 0h-67l-207 497l-20 57l3 -63v-491
h-70v712h68l206 -495l20 -61l-2 66v490h69v-712zM631 260v92c0 26 -3.5 44.667 -10.5 56s-19.167 17 -36.5 17c-16.667 0 -28.667 -5.66699 -36 -17s-11 -30 -11 -56v-92c0 -26 3.66699 -44.667 11 -56s19.333 -17 36 -17s28.667 5.83301 36 17.5s11 30.167 11 55.5z" />
    <glyph glyph-name="trademark" unicode="&#x2122;" horiz-adv-x="833" 
d="M782 285h-58v307l-101 -201h-57l-101 201v-307h-59v427h59l129 -258l130 258h58v-427zM331 659h-119v-374h-58v374h-118v53h295v-53z" />
    <glyph glyph-name="radical" unicode="&#x221a;" horiz-adv-x="539" 
d="M511 643h-89l-211 -643h-62l-120 364h78l73 -227l184 575h147v-69z" />
    <glyph glyph-name="infinity" unicode="&#x221e;" horiz-adv-x="808" 
d="M741 267c0 -46.667 -14.833 -84.8301 -44.5 -114.497s-67.834 -44.5 -114.501 -44.5c-36.667 0 -68 8.66699 -94 26s-54 43.333 -84 78c-30 -34.667 -58 -60.834 -84 -78.501s-57.333 -26.5 -94 -26.5c-46.667 0 -84.834 15 -114.501 45s-44.5 68.333 -44.5 115
s15 85 45 115s68 45 114 45c36 0 67.167 -8.83301 93.5 -26.5s54.5 -43.834 84.5 -78.501c30.667 35.333 58.834 61.666 84.501 78.999s56.834 26 93.501 26c46 0 84 -15 114 -45s45 -68.333 45 -115zM671 266.004c0 27.333 -8.33301 49.667 -25 67s-38.334 26 -65.001 26
c-13.333 0 -25.833 -2.33301 -37.5 -7s-24 -13 -37 -25s-22.167 -21 -27.5 -27l-29 -34c32 -38 56 -62.333 72 -73c19.333 -12.667 39 -19 59 -19c26.667 0 48.334 8.5 65.001 25.5s25 39.167 25 66.5zM358 266.005l-39.501 45.999
c-7.66699 8.66699 -20.5 18.834 -38.5 30.501s-35.667 17.5 -53 17.5c-26 0 -47.5 -8.83301 -64.5 -26.5s-25.5 -40.167 -25.5 -67.5s8.33301 -49.5 25 -66.5s38.334 -25.5 65.001 -25.5c13.333 0 25.833 2.16699 37.5 6.5s24 12.5 37 24.5s22 20.833 27 26.5z" />
    <glyph glyph-name="approxequal" unicode="&#x2248;" 
d="M351 364c-15.333 -24 -30.665 -42.167 -45.998 -54.5s-35.333 -18.5 -60 -18.5c-18 0 -41.667 9 -71 27c-26.667 17.333 -45 26 -55 26c-12.667 0 -23.334 -3.16699 -32.001 -9.5s-18 -17.5 -28 -33.5l-48 33c15.333 24 30.666 42.167 45.999 54.5s35.333 18.5 60 18.5
c20.667 0 45 -9.33301 73 -28c24.667 -16.667 42.334 -25 53.001 -25c13.333 0 24.166 3.33301 32.499 10s17.5 18 27.5 34zM351.001 211c-15.333 -24 -30.667 -42.167 -46 -54.5s-35.333 -18.5 -60 -18.5c-18 0 -41.667 9 -71 27c-26.667 17.333 -45 26 -55 26
c-12.667 0 -23.334 -3.33301 -32.001 -10s-18 -18 -28 -34l-48 34c15.333 24 30.666 42.167 45.999 54.5s35.333 18.5 60 18.5c20.667 0 45 -9.33301 73 -28c24.667 -16.667 42.334 -25 53.001 -25c12.667 0 23.334 3.16699 32.001 9.5s18 17.5 28 33.5z" />
    <glyph glyph-name="notequal" unicode="&#x2260;" 
d="M326 152h-162l-62 -121l-55 28l49 93h-61v64h92l55 106h-147v65h178l53 101l55 -26l-39 -75h44v-65h-78l-52 -106h130v-64z" />
    <glyph glyph-name="lessequal" unicode="&#x2264;" 
d="M330 182l-299 109v72l299 109v-72l-205 -73l205 -73v-72zM330 -5h-299v68h299v-68z" />
    <glyph glyph-name="greaterequal" unicode="&#x2265;" 
d="M330 291l-299 -109v72l205 73l-205 73v72l299 -109v-72zM330 -5h-299v68h299v-68z" />
    <glyph glyph-name=".null" horiz-adv-x="0" 
 />
    <glyph glyph-name="nonmarkingreturn" horiz-adv-x="333" 
 />
    <glyph glyph-name="hyphenminus" horiz-adv-x="272" 
d="M225 238h-178v63h178v-63z" />
    <glyph glyph-name="periodcentered" horiz-adv-x="216" 
d="M159 271c0 -14.667 -5 -27.167 -15 -37.5s-22.333 -15.5 -37 -15.5c-14 0 -26.167 5.16699 -36.5 15.5s-15.5 22.5 -15.5 36.5c0 14.667 5.16699 27 15.5 37s22.5 15 36.5 15s26.167 -5 36.5 -15s15.5 -22 15.5 -36z" />
    </font>
</defs>
</svg>
